<?xml version="1.0" standalone="no"?>
<!DOCTYPE svg PUBLIC "-//W3C//DTD SVG 20010904//EN"
 "http://www.w3.org/TR/2001/REC-SVG-20010904/DTD/svg10.dtd">
<svg version="1.0" xmlns="http://www.w3.org/2000/svg"
 width="45px" height="33px" viewBox="0 0 890.000000 512.000000"
 preserveAspectRatio="xMidYMid meet">

<g transform="translate(0.000000,512.000000) scale(0.100000,-0.100000)"
fill="#0E8DF1" stroke="none">
<path d="M4255 4984 c-485 -49 -899 -207 -1271 -485 -123 -92 -321 -283 -418
-403 -196 -242 -365 -561 -445 -839 -75 -265 -96 -419 -95 -712 0 -188 4 -254
22 -360 92 -541 323 -989 704 -1361 136 -133 217 -198 380 -305 225 -147 524
-274 780 -330 703 -154 1425 -1 1996 425 133 99 385 349 479 476 194 262 324
525 407 825 53 193 76 352 83 565 20 704 -235 1336 -739 1825 -365 356 -820
581 -1333 660 -96 15 -464 28 -550 19z m-158 -70 c-3 -3 -12 -4 -19 -1 -8 3
-5 6 6 6 11 1 17 -2 13 -5z m-60 -10 c-3 -3 -12 -4 -19 -1 -8 3 -5 6 6 6 11 1
17 -2 13 -5z m-43 -13 c4 -5 -3 -7 -14 -4 -23 6 -26 13 -6 13 8 0 17 -4 20 -9z
m-47 -7 c-3 -3 -12 -4 -19 -1 -8 3 -5 6 6 6 11 1 17 -2 13 -5z m-42 -14 c3 -6
-1 -7 -9 -4 -18 7 -21 14 -7 14 6 0 13 -4 16 -10z m-26 -13 c8 -11 6 -18 -9
-32 -11 -10 -17 -22 -13 -28 4 -6 1 -7 -6 -2 -9 5 -7 13 10 31 20 21 20 24 5
30 -11 4 -27 -3 -47 -22 l-29 -28 22 -25 c13 -14 6 -11 -14 8 -35 32 -36 33
-47 13 -13 -25 -14 -35 -2 -28 10 7 9 -20 -1 -30 -4 -3 -4 -13 -1 -22 4 -14 3
-15 -5 -2 -7 9 -8 18 -1 26 7 8 6 14 -1 19 -6 4 -8 16 -4 27 4 15 3 18 -6 13
-9 -5 -11 -4 -6 3 4 7 1 12 -9 12 -13 0 -14 -4 -5 -20 6 -11 8 -20 4 -20 -3 0
-2 -6 4 -13 9 -10 8 -19 -3 -35 -10 -13 -12 -23 -5 -27 6 -4 7 -11 4 -17 -4
-7 -2 -8 4 -4 6 4 8 14 5 24 -6 15 -5 15 10 3 15 -11 18 -10 27 13 5 14 14 25
19 24 5 -2 9 2 9 7 0 6 -5 9 -11 7 -7 -2 -9 0 -5 4 4 4 2 14 -4 23 -7 9 0 5
14 -8 15 -13 25 -27 23 -31 -3 -4 2 -13 10 -20 12 -10 16 -8 24 11 7 17 10 19
10 7 1 -9 5 -19 9 -22 4 -3 7 8 6 25 -1 16 3 32 9 36 6 3 7 1 3 -6 -4 -7 2
-14 15 -19 19 -7 20 -10 6 -15 -10 -4 -17 -1 -17 5 0 6 -3 9 -6 5 -3 -3 -3
-10 1 -16 9 -16 48 7 41 24 -7 20 22 12 39 -11 14 -18 14 -17 5 11 l-11 30 24
-29 c16 -20 24 -24 24 -13 0 9 -3 14 -7 12 -4 -2 -7 2 -7 9 0 8 7 13 16 11 9
-1 22 2 29 8 6 5 12 6 12 2 0 -4 7 -1 17 6 15 13 15 12 2 -8 -11 -18 -11 -25
-1 -35 11 -11 12 -10 7 3 -3 9 3 23 17 35 12 10 18 12 11 4 -8 -11 -8 -18 3
-28 8 -7 14 -9 14 -3 0 11 19 9 40 -4 13 -7 13 -6 2 7 -7 9 -22 15 -32 13 -13
-3 -17 1 -13 12 3 8 9 11 12 6 9 -12 44 -16 37 -4 -4 5 -1 13 5 17 8 4 9 3 5
-4 -4 -7 -2 -12 3 -13 20 -2 61 -1 66 1 3 1 13 3 23 4 11 0 27 8 37 16 17 13
18 13 10 0 -5 -8 -11 -23 -12 -33 -3 -15 -1 -16 11 -5 8 7 12 16 10 20 -2 4 0
9 5 12 10 7 9 -13 -1 -30 -5 -7 10 -10 43 -9 27 1 52 -2 55 -6 2 -5 12 -5 21
-2 10 4 14 2 9 -5 -3 -6 -1 -14 5 -18 7 -4 9 -3 5 4 -3 6 -2 13 4 17 5 3 10 0
10 -7 0 -9 3 -9 10 2 9 14 15 7 11 -14 -1 -5 4 -4 13 3 10 8 16 9 21 1 8 -12
25 -4 25 13 0 8 -3 8 -9 -2 -6 -9 -11 -10 -15 -2 -4 6 -12 8 -18 5 -7 -4 -8
-2 -4 4 4 6 14 8 24 5 14 -6 15 -4 5 8 -10 13 -10 16 2 16 7 0 13 -4 12 -8 -1
-4 3 -7 8 -7 6 0 9 5 7 12 -2 6 0 7 5 3 4 -5 8 -14 8 -20 0 -7 8 -11 17 -9 9
1 27 -11 39 -27 21 -29 39 -33 39 -8 0 9 -2 9 -8 1 -4 -7 -16 2 -30 24 -13 20
-17 30 -9 24 7 -7 17 -8 21 -4 4 4 7 2 6 -3 -5 -21 0 -36 10 -30 6 4 8 10 5
15 -3 5 -1 12 5 15 6 4 9 1 8 -7 -2 -7 3 -12 10 -10 8 1 11 -2 7 -8 -4 -7 0
-10 11 -8 14 2 19 -3 19 -18 1 -12 6 -28 13 -36 6 -8 10 -18 7 -21 -3 -4 -2
-5 1 -3 3 2 6 8 6 13 0 4 5 14 10 21 8 9 8 16 -2 25 -10 10 -12 9 -7 -4 3 -9
0 -16 -8 -16 -10 0 -11 5 -5 17 6 11 5 22 -3 30 -10 12 -9 12 4 2 9 -6 19 -8
23 -4 4 4 6 0 4 -8 -2 -8 2 -14 9 -15 6 0 15 -3 19 -7 4 -4 13 -3 20 3 10 8
11 6 1 -15 -11 -23 -12 -24 -19 -5 -10 27 -21 24 -13 -3 5 -19 4 -20 -5 -8
-10 13 -11 13 -7 0 2 -8 -3 -24 -12 -35 -14 -17 -14 -18 0 -7 9 6 19 8 23 4 4
-4 6 -2 4 3 -2 6 2 11 7 13 6 1 10 -2 10 -7 0 -5 4 -13 9 -18 5 -4 6 -3 2 4
-3 6 -2 14 4 18 8 5 14 -13 12 -36 -1 -4 9 -15 21 -25 12 -10 19 -15 15 -10
-10 11 11 38 23 30 5 -3 9 -10 9 -15 0 -6 -4 -8 -9 -5 -11 7 -8 -20 3 -31 4
-4 6 -1 4 7 -2 8 2 14 9 13 8 -2 10 4 6 15 -4 13 -3 14 6 6 16 -14 22 -52 10
-60 -6 -4 -4 -13 6 -24 14 -15 14 -18 0 -30 -14 -12 -14 -15 1 -31 9 -10 14
-25 11 -33 -4 -9 0 -28 8 -43 8 -15 11 -31 7 -35 -4 -4 -74 -9 -157 -13 -327
-12 -510 -54 -687 -156 -221 -129 -355 -335 -419 -646 -20 -97 -23 -145 -27
-480 l-4 -371 -28 8 c-16 5 -31 6 -33 3 -3 -3 -107 -4 -231 -4 l-226 1 -1
-208 c-1 -114 0 -211 1 -217 1 -5 -1 -7 -5 -3 -4 4 -7 35 -8 70 0 39 -5 69
-14 79 -8 9 -13 20 -12 25 4 22 -2 45 -10 40 -10 -6 -7 -49 5 -68 5 -7 9 -19
10 -26 2 -10 -1 -10 -11 -2 -8 7 -14 15 -13 18 2 20 -3 33 -11 28 -12 -8 -8
-30 7 -49 9 -11 10 -17 2 -22 -8 -5 -8 -11 1 -21 18 -22 4 -16 -17 7 -10 11
-13 19 -7 17 6 -2 11 2 11 7 0 6 -4 9 -8 8 -5 -2 -7 6 -5 17 2 11 -1 22 -6 26
-6 3 -8 18 -5 33 6 24 5 25 -8 7 -10 -12 -12 -25 -7 -35 12 -23 8 -69 -8 -83
-11 -11 -12 -10 -5 2 14 25 13 38 -7 56 -17 16 -28 7 -12 -10 4 -3 8 -14 9
-22 1 -9 -1 -13 -4 -9 -4 4 -7 11 -7 16 0 12 -20 12 -21 -1 -1 -5 -3 -13 -4
-17 -1 -5 -2 -12 -1 -16 1 -5 -3 -6 -9 -2 -8 5 -7 11 1 21 6 8 8 14 5 14 -4 0
2 13 13 29 19 26 19 30 5 47 -15 19 -16 19 -10 0 4 -11 -1 -30 -11 -45 -10
-14 -18 -29 -19 -33 -1 -5 -3 -10 -4 -13 -1 -3 -3 -9 -4 -14 0 -5 -4 -12 -8
-16 -5 -5 -4 14 1 33 1 1 0 4 -1 5 -2 2 3 11 10 19 10 13 9 18 -5 29 -15 12
-16 12 -10 -3 3 -10 2 -20 -4 -23 -5 -4 -7 -10 -4 -15 3 -5 1 -11 -5 -15 -6
-4 -8 -10 -5 -15 3 -5 1 -11 -4 -14 -7 -5 -8 22 -1 32 2 1 4 7 5 12 1 6 4 12
5 15 2 5 3 37 1 56 0 5 -5 8 -10 4 -6 -3 -8 -15 -6 -27 3 -12 0 -27 -6 -35 -7
-7 -8 -13 -4 -13 4 0 2 -6 -4 -13 -6 -8 -8 -16 -5 -19 3 -3 1 -9 -4 -12 -11
-6 -11 12 -1 29 4 6 5 18 4 28 -2 9 1 15 6 11 5 -3 9 -1 9 5 0 16 -17 22 -28
8 -5 -6 -8 -20 -7 -29 2 -10 -1 -20 -6 -24 -5 -3 -6 -10 -3 -16 4 -7 2 -8 -5
-4 -7 5 -9 12 -3 19 10 14 9 40 -3 80 -5 20 -10 25 -16 16 -4 -7 -5 -18 -1
-24 13 -20 9 -65 -6 -77 -13 -11 -14 -11 -7 2 5 8 11 23 12 34 3 16 1 17 -12
6 -8 -7 -13 -16 -10 -20 3 -5 1 -11 -5 -15 -6 -4 -7 -11 -4 -17 5 -7 2 -8 -5
-3 -9 5 -10 10 -2 18 7 7 7 14 -1 24 -9 11 -14 11 -32 -4 -12 -10 -8 -3 8 15
17 17 26 32 22 32 -5 0 -1 11 8 24 9 14 12 27 7 30 -5 3 -16 -11 -24 -32 -8
-20 -24 -46 -36 -56 -17 -15 -19 -22 -9 -35 10 -13 10 -14 -2 -4 -17 15 -22
43 -8 40 13 -2 18 62 6 69 -8 5 -11 -5 -11 -38 0 -9 -5 -16 -11 -15 -6 1 -10
-7 -8 -18 2 -18 2 -19 -8 -2 -6 9 -16 15 -21 11 -5 -3 -8 -2 -7 3 2 4 -1 8 -7
8 -5 0 -9 -4 -7 -9 2 -5 -4 -4 -12 4 -9 7 -16 18 -16 24 0 6 4 5 9 -3 5 -8 11
-9 15 -3 3 6 2 13 -3 17 -6 3 -8 12 -4 20 9 26 -6 16 -21 -14 -14 -26 -14 -30
8 -50 12 -12 26 -19 29 -16 4 3 5 2 2 -2 -3 -3 1 -13 7 -22 7 -9 -4 -1 -23 17
-19 18 -39 29 -44 25 -4 -5 -5 -3 -2 3 4 7 0 17 -8 24 -13 11 -15 10 -12 -6 1
-11 6 -26 11 -34 7 -12 6 -13 -4 -3 -17 16 -23 50 -10 58 6 3 5 15 -2 30 -6
13 -15 22 -20 19 -5 -3 -4 -12 3 -20 8 -9 8 -18 2 -26 -6 -7 -9 -21 -7 -31 1
-11 -1 -16 -4 -12 -4 4 -7 14 -7 23 -1 9 -7 27 -14 40 -7 13 -10 30 -7 37 3 8
1 17 -4 20 -6 4 -11 1 -11 -4 -1 -6 -2 -17 -3 -23 -1 -7 2 -19 7 -26 6 -7 11
-23 11 -36 1 -13 8 -32 16 -42 13 -18 13 -18 -6 -1 -10 10 -20 27 -20 37 -3
37 -4 41 -12 36 -5 -3 -8 -21 -7 -40 1 -20 -1 -33 -6 -31 -4 3 -6 17 -3 31 3
19 1 24 -8 18 -7 -4 -5 2 5 13 9 11 14 22 11 26 -4 3 -15 -4 -26 -16 l-19 -22
16 26 c14 24 14 27 -2 40 -15 12 -16 12 -10 -5 4 -10 2 -25 -5 -33 -15 -19
-18 -84 -4 -103 9 -13 9 -13 -5 -2 -12 8 -15 25 -14 57 2 25 -1 43 -5 40 -5
-3 -7 6 -5 20 1 14 -2 25 -6 25 -5 0 -10 -4 -10 -10 -1 -5 -2 -16 -3 -22 -1
-7 0 -17 3 -23 10 -18 10 -35 0 -29 -5 3 -7 9 -4 14 3 5 1 11 -4 15 -9 5 -9
23 1 50 1 6 -1 11 -7 13 -5 1 -10 -2 -10 -7 0 -5 -3 -12 -7 -16 -13 -13 -2 21
14 44 17 24 15 47 -3 35 -5 -3 -7 -9 -4 -13 2 -5 -5 -17 -18 -27 -18 -16 -19
-16 -8 -1 7 9 10 17 6 17 -4 0 -3 6 2 13 12 16 10 67 -2 67 -6 0 -10 -13 -10
-29 0 -16 -3 -32 -6 -35 -3 -3 -5 11 -4 32 1 21 -5 46 -14 57 -16 20 -16 20 7
1 12 -11 22 -15 22 -11 0 5 -10 20 -22 34 -18 19 -18 22 -4 11 18 -14 19 -13
13 2 -3 10 -2 20 3 23 6 4 10 11 10 17 0 6 -9 3 -19 -6 -13 -12 -21 -14 -26
-6 -3 6 -1 9 6 8 16 -4 19 22 5 42 -10 13 -9 13 7 1 18 -14 21 -12 11 13 -3 9
-11 13 -18 9 -7 -4 -7 -1 1 9 7 8 9 19 5 23 -4 5 -1 5 6 1 6 -4 12 -2 12 3 0
6 4 11 9 11 5 0 8 -18 7 -40 -2 -22 1 -43 6 -46 4 -3 6 -9 4 -13 -3 -4 2 -29
9 -57 l15 -49 -5 45 c-4 45 -4 45 6 10 6 -19 15 -43 20 -53 5 -10 7 -23 3 -29
-4 -6 -3 -8 4 -4 6 3 13 2 17 -3 3 -5 14 -8 25 -6 13 3 18 0 14 -7 -4 -7 -2
-8 5 -4 6 4 11 4 10 -1 -1 -4 -1 -24 0 -43 1 -24 4 -31 10 -21 5 7 6 22 3 33
-4 15 -1 19 9 16 8 -3 13 -14 12 -24 -1 -19 -1 -19 12 0 8 10 11 24 8 30 -4 6
2 4 12 -4 17 -13 18 -13 10 0 -8 13 -7 13 8 1 9 -7 17 -10 17 -5 0 5 8 0 17
-11 l16 -20 -7 20 c-6 19 -5 19 8 2 8 -10 16 -14 18 -10 3 4 3 3 2 -4 -2 -7 5
-10 17 -8 13 3 17 0 12 -8 -4 -7 2 -5 12 3 10 8 16 10 12 3 -8 -13 10 -12 32
1 10 7 12 6 6 -4 -5 -8 -4 -11 3 -6 6 4 8 14 5 24 -3 9 3 5 15 -9 17 -22 29
-26 61 -25 22 1 43 5 47 9 4 4 14 1 22 -6 9 -6 13 -7 9 -1 -12 20 45 9 60 -11
16 -20 16 -20 9 0 l-6 20 16 -20 17 -20 -7 20 -6 20 16 -20 17 -20 -7 20 -6
20 16 -20 c15 -19 15 -19 10 8 -3 16 -1 25 5 22 5 -4 6 -12 2 -18 -4 -7 2 -5
12 3 17 13 18 13 10 0 -8 -13 -7 -13 10 0 15 12 17 12 10 1 -5 -10 -4 -12 3
-7 8 5 10 1 6 -11 -6 -15 -4 -15 10 2 l16 20 -6 -20 c-5 -16 -4 -17 4 -6 9 12
12 9 18 -15 5 -16 7 -34 6 -41 -1 -6 2 -14 7 -17 10 -6 7 146 -3 162 -3 6 -2
14 4 17 7 4 7 11 2 18 -5 7 -8 19 -7 28 2 9 -3 16 -11 16 -10 0 -11 -4 -3 -14
6 -7 8 -13 4 -13 -4 0 -2 -6 4 -14 7 -9 8 -17 3 -20 -9 -5 -24 16 -26 36 -1 3
-4 10 -8 14 -4 4 -3 13 3 20 7 8 6 14 -2 20 -7 4 -9 3 -5 -4 3 -6 2 -14 -4
-17 -8 -5 -7 -11 1 -21 6 -8 9 -14 5 -14 -4 0 0 -11 9 -24 14 -21 14 -24 -1
-37 -15 -12 -16 -12 -10 7 4 14 1 26 -9 34 -8 7 -13 16 -10 20 3 5 1 12 -5 15
-8 5 -8 11 -1 19 8 9 7 13 -3 13 -11 0 -14 -12 -7 -34 1 -2 1 -6 2 -10 0 -5 5
-13 10 -20 7 -7 6 -14 -1 -18 -5 -3 -10 0 -10 7 0 10 -3 9 -10 -2 -5 -8 -5
-19 0 -25 5 -6 5 -17 1 -24 -13 -21 -23 36 -10 60 6 11 8 23 6 26 -3 2 -8 -5
-12 -16 -3 -12 -11 -19 -16 -15 -6 4 -6 11 1 19 8 9 8 15 0 20 -6 4 -9 3 -8
-2 2 -4 -1 -8 -7 -8 -5 0 -10 17 -9 37 0 20 -3 35 -6 33 -4 -2 -6 -21 -5 -42
1 -26 -6 -47 -22 -66 -13 -16 -23 -34 -23 -40 0 -7 -4 -6 -10 3 -6 9 -5 17 3
22 9 6 9 8 -1 8 -7 0 -10 5 -7 10 4 6 10 8 15 5 10 -6 27 16 27 36 0 19 -24
22 -24 3 0 -7 4 -11 9 -8 10 6 11 -10 1 -19 -11 -12 -32 14 -26 31 3 9 3 14
-2 10 -4 -4 -9 -20 -11 -35 -3 -39 -3 -40 -14 -23 -7 12 -11 8 -16 -18 -4 -20
-10 -29 -14 -22 -10 16 11 70 24 63 6 -4 8 -3 4 2 -4 4 -3 14 3 21 7 8 7 14
-1 19 -6 3 -7 11 -4 17 4 7 2 8 -5 4 -9 -6 -9 -11 -1 -21 7 -9 6 -16 -4 -24
-8 -7 -17 -23 -20 -37 -4 -14 -11 -22 -17 -19 -7 5 -6 12 2 21 6 8 8 14 4 14
-5 0 0 9 9 19 12 13 14 21 6 26 -6 3 -9 3 -8 -2 2 -4 -1 -9 -7 -10 -5 -1 -9 6
-9 17 1 11 -2 17 -6 15 -7 -4 -6 -40 0 -40 7 0 6 -36 -1 -41 -5 -3 -9 4 -9 15
0 11 -5 23 -10 26 -6 4 -7 12 -4 18 4 7 3 8 -1 4 -12 -10 -16 -39 -5 -32 5 3
8 -16 8 -42 0 -41 -2 -44 -9 -24 -6 14 -7 31 -4 38 2 8 0 11 -5 8 -6 -3 -10
-13 -10 -22 0 -22 -13 -8 -17 18 -2 11 1 18 6 15 5 -4 8 2 6 11 -1 10 2 25 8
33 6 8 7 12 3 8 -5 -4 -16 -2 -25 5 -13 10 -14 10 -5 -3 13 -19 12 -28 -6 -60
-7 -14 -13 -26 -12 -27 7 -10 0 -33 -7 -28 -6 3 -6 18 0 38 17 53 18 63 8 78
-6 10 -8 7 -7 -11 1 -39 -1 -52 -10 -46 -5 3 -8 23 -7 44 1 26 -3 39 -11 39
-7 0 -10 -5 -6 -11 10 -16 10 -56 0 -62 -7 -5 -12 10 -9 29 1 5 -3 6 -8 2 -6
-3 -7 -13 -4 -23 6 -15 5 -15 -10 -3 -12 10 -14 17 -7 26 7 9 6 16 -5 25 -11
9 -12 16 -5 25 8 10 8 15 -1 21 -7 4 -9 3 -5 -4 3 -6 1 -14 -4 -17 -8 -5 -6
-13 4 -24 9 -10 13 -21 9 -25 -8 -7 -9 -11 -12 -37 0 -5 -5 -8 -10 -5 -10 6
-9 25 1 41 3 6 0 19 -8 30 -8 10 -14 14 -14 8 0 -7 5 -15 11 -18 7 -5 5 -13
-5 -24 -11 -12 -13 -20 -5 -28 7 -7 7 -13 1 -17 -15 -9 -26 33 -12 49 7 8 7
15 1 19 -5 4 -8 15 -6 26 2 11 -1 22 -6 25 -5 4 -7 10 -5 14 3 4 -1 8 -9 8
-12 0 -12 -3 -2 -15 6 -8 12 -22 12 -31 0 -9 4 -21 8 -28 4 -6 2 -15 -4 -18
-6 -4 -8 -18 -5 -31 8 -30 -2 -31 -13 -1 -5 13 -5 27 1 34 6 7 5 14 -2 18 -6
3 -7 11 -4 17 4 6 2 8 -3 5 -6 -4 -9 -25 -7 -46 2 -22 0 -43 -5 -46 -6 -3 -10
4 -10 15 -1 11 -1 30 -1 42 -1 18 -3 20 -10 8 -9 -13 -10 -13 -11 0 -1 8 -1
22 0 30 2 13 1 13 -8 0 -11 -15 -13 -13 -15 19 -2 31 -13 34 -13 3 0 -32 -26
-95 -36 -86 -3 4 -2 16 4 27 8 15 8 18 -1 12 -8 -5 -11 -3 -8 6 3 8 10 13 15
12 5 -1 10 4 10 12 0 8 -5 13 -11 12 -6 -1 -10 8 -10 21 1 12 -1 20 -4 17 -9
-8 -32 17 -25 28 4 6 1 7 -6 2 -9 -5 -7 -13 8 -29 17 -18 18 -25 8 -35 -6 -7
-7 -11 -2 -9 6 2 11 -1 13 -7 1 -5 -4 -10 -10 -11 -23 -1 -28 7 -18 25 7 14 5
23 -10 36 -16 14 -17 21 -8 32 9 11 8 13 -3 11 -10 -2 -14 7 -14 29 0 31 -14
36 -16 5 0 -10 -3 -12 -5 -5 -6 13 -124 -56 -221 -128 -29 -22 -55 -39 -59
-39 -4 0 -4 39 0 88 56 706 449 1370 1046 1772 155 104 438 249 461 235 5 -4
9 -2 9 3 0 8 51 32 66 32 2 0 4 -10 4 -22 0 -18 2 -20 9 -9 5 8 7 19 5 26 -5
13 70 40 85 30 5 -3 11 0 13 5 2 6 16 12 31 14 15 1 30 6 34 9 10 11 30 8 42
-6z m-37 -30 c-21 -22 -21 -24 -4 -42 17 -19 17 -19 -6 0 l-22 18 22 24 c12
13 24 23 26 23 3 0 -4 -10 -16 -23z m511 -24 c-5 -12 -3 -14 8 -7 21 13 36 13
36 0 0 -7 -15 -12 -33 -12 -28 0 -31 3 -23 18 12 23 20 24 12 1z m78 -17 c5 3
6 11 2 17 -4 7 0 6 10 -2 9 -7 17 -19 17 -25 0 -6 -4 -5 -9 3 -6 9 -11 10 -15
2 -10 -15 -26 -4 -25 17 1 15 2 15 6 -1 2 -9 9 -15 14 -11z m47 -7 c-3 -8 -7
-3 -11 10 -4 17 -3 21 5 13 5 -5 8 -16 6 -23z m25 6 c-7 -21 -12 -19 -10 4 0
11 5 18 9 15 4 -3 5 -11 1 -19z m363 -82 c-1 -13 6 -18 22 -17 17 1 20 -2 12
-11 -7 -8 -7 -15 -2 -19 10 -6 27 22 23 37 -1 5 3 6 9 2 6 -3 8 -10 5 -15 -3
-4 2 -13 11 -20 8 -7 12 -20 9 -27 -3 -9 0 -13 7 -10 7 2 12 9 11 14 -1 5 5
10 12 10 10 0 12 -4 5 -12 -5 -6 -5 -16 0 -25 9 -14 11 -13 14 9 0 5 4 12 8
16 3 4 5 -1 4 -12 -5 -25 5 -38 16 -22 8 11 9 10 4 -3 -6 -20 10 -34 18 -16 3
7 3 2 -1 -12 -5 -20 -3 -23 8 -13 8 6 19 13 24 15 6 1 9 7 7 11 -1 5 2 5 9 2
7 -5 2 -17 -15 -34 -14 -15 -26 -33 -26 -39 0 -7 13 2 30 20 l29 33 -5 -29
c-5 -27 -3 -28 13 -16 15 12 16 12 6 0 -19 -21 -16 -34 5 -19 14 11 15 11 5 0
-6 -7 -9 -21 -6 -30 4 -12 2 -11 -9 3 -18 22 -30 10 -35 -36 -4 -38 4 -35 16
5 6 20 9 24 10 12 0 -11 -3 -26 -8 -34 -11 -16 -3 -43 10 -36 4 3 6 12 3 19
-3 8 0 17 5 21 6 3 8 12 5 18 -4 7 -3 8 1 4 12 -10 15 -38 4 -31 -5 3 -9 1 -9
-5 0 -16 18 -22 27 -9 10 17 11 31 1 44 -8 11 -3 52 7 63 3 3 3 -9 0 -28 -3
-18 -2 -30 3 -27 13 8 8 -42 -5 -55 -8 -8 -9 -18 -3 -29 7 -13 4 -16 -15 -16
-13 0 -21 4 -19 8 3 5 10 6 15 3 5 -4 9 -2 9 4 0 21 -19 20 -34 -1 -11 -15
-16 -18 -16 -8 0 13 -2 13 -10 0 -9 -13 -10 -13 -10 0 0 12 -2 12 -9 2 -7 -11
-9 -10 -14 3 -4 10 -3 14 4 9 6 -3 4 4 -4 17 -8 13 -13 41 -12 63 1 21 -1 33
-5 27 -4 -7 -7 5 -8 25 -2 44 -12 60 -12 18 0 -21 -3 -25 -9 -15 -6 9 -6 22 0
32 12 24 11 37 -2 19 -9 -13 -10 -12 -5 3 3 11 2 16 -4 12 -6 -4 -9 -1 -8 7 2
7 -3 12 -11 10 -8 -2 -18 3 -22 10 -6 9 -8 6 -7 -9 1 -13 7 -19 15 -16 9 4 11
0 7 -11 -5 -13 -9 -14 -20 -5 -8 6 -12 15 -9 19 6 10 -25 51 -35 45 -5 -3 -12
0 -15 5 -5 8 -13 6 -26 -6 -10 -9 -19 -15 -20 -13 0 2 -2 12 -4 22 -7 35 -15
48 -26 41 -8 -4 -8 0 0 15 14 25 22 28 15 4 -4 -13 0 -11 12 5 20 27 22 27 20
5z m130 -170 c-8 -8 13 -45 22 -39 4 2 8 -3 9 -12 2 -22 10 -70 17 -103 5 -24
3 -26 -35 -27 -22 -1 -38 2 -35 6 3 5 -1 19 -8 33 -7 13 -11 39 -10 56 1 18
-1 31 -5 30 -3 -1 -6 3 -6 8 0 6 3 9 7 8 10 -4 3 24 -11 41 -13 15 -11 19 7
14 4 -2 6 -7 4 -13 -1 -5 6 0 15 11 15 18 19 19 26 7 5 -8 6 -17 3 -20z m191
-147 c-3 -7 0 -20 6 -27 10 -11 9 -11 -5 0 -15 11 -15 41 -1 41 3 0 3 -6 0
-14z m313 -500 l0 -414 -287 -4 c-271 -4 -291 -5 -345 -26 -33 -13 -69 -37
-87 -57 -55 -63 -61 -106 -61 -437 l0 -298 391 0 390 0 -5 -42 c-3 -24 -22
-200 -41 -393 -20 -192 -38 -360 -41 -373 l-4 -22 -345 0 -345 0 -2 -802 c0
-442 -1 -810 -2 -818 -1 -21 -63 -28 -251 -29 -237 -1 -434 25 -657 86 l-98
27 0 768 0 768 -260 0 -260 0 0 415 0 415 259 0 259 0 5 393 c5 420 10 470 63
639 94 299 303 493 618 573 150 38 215 42 674 44 l432 1 0 -414z m-3135 -1055
c-3 -5 -1 -12 5 -16 6 -4 8 -10 5 -14 -2 -5 4 -16 15 -26 15 -13 17 -22 10
-36 -7 -12 -7 -20 0 -24 6 -4 7 -12 3 -18 -4 -8 -2 -8 9 1 13 10 17 10 22 -4
3 -9 4 -20 1 -24 -3 -5 -1 -11 5 -15 5 -3 10 -16 11 -28 0 -12 7 -2 15 25 8
26 18 49 23 52 5 4 18 -8 28 -25 18 -27 19 -42 11 -106 -1 -9 -5 -10 -14 -2
-7 6 -19 7 -25 3 -7 -4 -9 -3 -6 3 9 14 -14 31 -36 28 -20 -4 -37 23 -52 80
-7 25 -16 39 -24 37 -8 -2 -11 3 -8 12 4 9 3 18 -2 20 -4 3 -7 22 -5 43 3 46
3 43 10 43 3 0 3 -4 -1 -9z m294 -207 c-15 -18 -22 -13 -13 10 3 9 10 13 16
10 5 -3 4 -12 -3 -20z m41 -18 c0 -5 -6 -3 -13 3 -17 14 -28 4 -20 -17 5 -14
3 -15 -7 -5 -11 10 -10 16 5 33 14 16 20 17 27 8 4 -7 8 -17 8 -22z m17 -2
c-2 -14 0 -27 4 -30 5 -3 4 -14 -1 -25 -13 -23 -30 -16 -30 12 0 11 4 18 9 15
4 -3 7 10 5 29 -1 22 2 33 8 29 5 -4 8 -17 5 -30z m-120 10 c7 -1 16 2 19 8 3
5 15 -4 25 -22 19 -31 46 -32 34 -1 -4 10 -3 13 4 6 5 -5 7 -22 4 -38 -5 -25
-6 -26 -19 -10 -13 17 -14 17 -8 -2 5 -16 4 -17 -5 -5 -6 8 -15 16 -21 16 -5
1 -12 3 -15 4 -3 1 -14 3 -25 4 -12 0 -25 8 -30 16 -8 12 -10 12 -10 1 0 -8
-3 -12 -6 -9 -10 11 16 49 29 41 7 -4 18 -8 24 -9z m413 -15 c0 -4 5 -20 11
-36 10 -27 11 -27 25 -9 11 15 11 23 2 35 -7 9 -8 13 -4 9 5 -4 16 -2 24 5 13
10 15 9 9 -6 -11 -29 3 -40 24 -21 15 13 19 14 20 3 0 -8 2 -31 4 -52 3 -37 2
-38 -12 -18 -8 12 -18 19 -23 16 -5 -3 -11 -1 -15 4 -3 5 -14 8 -25 6 -11 -2
-22 1 -25 6 -4 5 -11 7 -16 3 -5 -3 -7 -9 -5 -13 6 -9 -60 -8 -69 1 -10 9 2
42 26 73 17 20 24 23 35 14 8 -6 14 -15 14 -20z m-152 -57 c-2 -11 -16 -16
-46 -18 -47 -2 -74 21 -65 57 8 28 22 13 18 -19 -2 -15 -2 -21 1 -14 3 6 11 9
17 5 7 -4 7 -1 -1 9 -8 10 -9 19 -3 22 5 3 13 -8 17 -26 7 -33 7 -33 16 -8 5
14 7 34 4 45 -4 16 0 14 20 -9 14 -15 24 -35 22 -44z m50 44 c0 -6 3 -22 6
-36 6 -22 5 -22 -7 4 l-14 29 -7 -28 c-9 -36 -18 -27 -10 12 5 28 30 42 32 19z
m-452 -172 c1 -9 0 -13 -4 -10 -3 4 -7 14 -8 22 -1 9 0 13 4 10 3 -4 7 -14 8
-22z m14 -30 c0 -8 -19 -13 -24 -6 -3 5 1 9 9 9 8 0 15 -2 15 -3z m93 -9 c4
-8 3 -16 -1 -19 -4 -3 -9 4 -9 15 -2 23 3 25 10 4z m217 1 c0 -2 -8 -10 -17
-17 -16 -13 -17 -12 -4 4 13 16 21 21 21 13z m-185 -15 c3 -5 2 -12 -3 -15 -5
-3 -9 1 -9 9 0 17 3 19 12 6z m116 -8 c13 -16 12 -17 -3 -4 -17 13 -22 21 -14
21 2 0 10 -8 17 -17z m294 -2 c3 -5 2 -12 -3 -15 -5 -3 -9 1 -9 9 0 17 3 19
12 6z m-225 -17 c0 -8 -19 -13 -24 -6 -3 5 1 9 9 9 8 0 15 -2 15 -3z"/>
<path d="M3785 4837 c-11 -8 -14 -16 -8 -20 6 -4 18 2 28 13 21 23 8 27 -20 7z"/>
<path d="M3735 4820 c4 -6 11 -8 16 -5 14 9 11 15 -7 15 -8 0 -12 -5 -9 -10z"/>
<path d="M3683 4798 c0 -7 -4 -22 -9 -33 -7 -20 -7 -20 14 -2 11 11 18 25 15
33 -6 17 -20 18 -20 2z"/>
<path d="M3640 4791 c0 -8 -3 -11 -6 -8 -4 3 -16 1 -28 -5 -11 -7 -30 -13 -41
-15 -10 -2 -23 -9 -27 -16 -4 -6 -8 -8 -8 -3 0 5 -6 4 -12 -2 -7 -6 -16 -10
-20 -9 -4 1 -16 -5 -26 -13 -18 -14 -30 -19 -62 -24 -8 -2 -18 -18 -23 -37 -5
-19 -13 -38 -19 -44 -8 -7 -9 -5 -6 5 16 46 19 65 9 50 -6 -8 -11 -11 -11 -6
0 5 -10 0 -23 -12 -13 -12 -28 -19 -32 -15 -5 5 -4 1 3 -9 8 -9 9 -19 4 -22
-6 -3 -13 2 -16 11 -6 14 -9 14 -30 -6 -12 -11 -27 -18 -32 -14 -5 5 1 -4 14
-18 33 -38 27 -47 -10 -13 -18 16 -25 20 -15 8 15 -18 15 -23 4 -32 -8 -7 -18
-8 -23 -4 -4 4 -3 0 4 -9 6 -9 10 -18 7 -21 -3 -3 1 -11 10 -18 8 -7 15 -11
16 -9 8 40 8 52 0 40 -5 -8 -11 -9 -15 -3 -3 5 1 15 8 22 12 9 17 7 27 -12 7
-13 11 -24 10 -26 -2 -2 0 -6 3 -9 3 -3 3 7 0 22 -4 24 -3 26 9 17 11 -10 17
-9 27 3 10 12 16 13 27 3 8 -6 13 -7 12 -2 -2 5 5 25 14 44 15 30 16 31 12 8
-3 -15 -1 -30 5 -33 6 -4 7 1 3 11 -4 12 -3 15 5 10 7 -4 15 -1 18 8 3 9 10
13 15 10 5 -3 6 -10 3 -16 -5 -7 -2 -8 5 -3 9 5 10 10 2 18 -21 21 -11 30 11
11 12 -10 18 -14 15 -8 -4 7 1 18 10 25 15 12 16 12 10 -6 -6 -17 -4 -16 11 4
14 17 21 20 27 12 5 -9 12 -8 26 5 10 9 19 22 19 28 0 6 -7 3 -15 -8 -14 -18
-14 -18 -14 0 1 11 -2 30 -6 44 -5 21 -3 20 9 -5 8 -16 15 -24 15 -17 1 7 -4
22 -9 32 -9 16 -7 18 10 15 11 -2 20 1 20 7 0 5 -7 7 -16 4 -9 -3 -12 -2 -9 5
4 6 14 8 22 5 9 -4 11 -2 7 6 -4 7 -3 8 4 4 6 -4 8 -14 5 -23 -4 -11 -3 -14 6
-9 7 5 10 15 7 23 -3 8 -2 11 3 8 6 -3 14 3 20 12 6 11 11 13 11 5 0 -7 5 -10
12 -6 7 5 8 3 2 -7 -5 -8 -9 -18 -9 -24 -1 -5 -7 -22 -15 -38 -11 -22 -11 -30
-1 -40 10 -9 11 -8 5 6 -4 12 -2 17 6 15 7 -2 15 4 17 12 4 13 3 13 -6 0 -6
-8 -11 -10 -11 -4 0 5 4 14 9 20 5 5 12 18 15 29 3 12 4 9 2 -7 -2 -16 2 -35
8 -43 9 -12 11 -9 10 17 -2 33 -33 116 -34 89z m-118 -63 c-11 -15 -10 -67 3
-89 7 -12 6 -12 -7 -1 -11 9 -18 10 -23 2 -3 -6 -10 -8 -15 -5 -4 3 -13 -2
-20 -10 -9 -11 -16 -12 -26 -4 -10 8 -16 4 -27 -17 -12 -23 -15 -24 -19 -8 -6
26 17 103 24 82 4 -9 2 -20 -4 -26 -6 -6 -6 -12 3 -17 8 -5 10 -4 5 4 -4 6 -4
11 1 10 20 -3 24 2 12 17 -10 13 -10 17 1 24 8 5 17 7 21 5 3 -3 14 4 24 15
10 11 21 17 26 15 4 -3 10 -1 14 5 3 5 9 10 12 10 3 0 1 -6 -5 -12z m-167
-115 c-2 -25 -9 -51 -16 -57 -9 -8 -11 -7 -6 4 8 24 14 46 10 37 -3 -4 -9 -5
-14 -2 -5 4 -6 -2 -2 -12 5 -14 3 -16 -7 -6 -11 10 -11 15 0 28 7 8 9 15 5 15
-5 0 0 9 10 20 10 11 20 20 21 20 2 0 2 -21 -1 -47z m-46 -70 c-11 -12 -16
-10 -35 14 -20 26 -21 29 -7 46 15 16 17 15 35 -14 15 -25 16 -34 7 -46z"/>
<path d="M3490 4707 c0 -9 -3 -16 -7 -16 -5 1 -11 0 -15 -1 -9 -3 -24 -7 -34
-9 -4 0 -1 -7 5 -15 8 -10 9 -16 1 -21 -6 -3 -8 -11 -4 -16 4 -6 14 -3 25 7
10 9 19 14 19 9 0 -4 6 -2 14 4 9 7 13 23 10 39 -6 31 -14 42 -14 19z m6 -34
c-1 -7 -5 -12 -8 -11 -3 2 -16 -6 -29 -17 -13 -11 -18 -13 -12 -5 10 11 10 17
0 29 -9 11 -9 13 0 8 6 -4 14 -4 17 1 8 14 34 10 32 -5z"/>
<path d="M3466 4672 c-3 -5 1 -9 9 -9 8 0 12 4 9 9 -3 4 -7 8 -9 8 -2 0 -6 -4
-9 -8z"/>
<path d="M3273 4585 c0 -8 4 -12 9 -9 7 5 12 -10 9 -29 -1 -5 3 -6 9 -2 7 4 7
12 0 25 -13 25 -27 33 -27 15z"/>
<path d="M4234 4789 c-2 -4 -21 -5 -41 -4 -21 2 -32 1 -25 -2 6 -2 10 -9 7
-13 -3 -5 -1 -12 5 -15 6 -4 9 -1 8 6 -2 7 6 13 17 14 11 0 26 4 34 9 11 7 13
5 8 -10 -7 -18 -6 -18 7 -1 10 13 15 14 18 6 3 -9 6 -9 10 2 4 11 -1 15 -19
15 -13 0 -26 -3 -29 -7z"/>
<path d="M4025 4781 c-3 -6 -11 -9 -16 -6 -5 3 -6 -1 -3 -9 5 -14 8 -14 21 0
9 8 13 17 10 20 -3 3 -8 0 -12 -5z"/>
<path d="M3693 4757 c-13 -18 -16 -64 -4 -71 5 -3 8 2 7 11 -2 10 3 28 11 40
15 22 2 42 -14 20z"/>
<path d="M3927 4751 c-4 -17 -3 -21 5 -13 5 5 8 16 6 23 -3 8 -7 3 -11 -10z"/>
<path d="M4566 4762 c2 -3 -1 -11 -7 -18 -7 -8 -7 -14 1 -19 6 -4 9 -2 8 3 -2
6 2 10 7 10 6 0 9 -4 7 -10 -1 -5 2 -7 8 -3 6 3 8 11 5 16 -11 16 7 10 22 -8
13 -16 13 -16 3 5 -6 13 -17 21 -25 19 -7 -3 -17 -2 -22 3 -6 4 -8 5 -7 2z"/>
<path d="M3606 4735 c-9 -14 -14 -31 -10 -37 5 -7 3 -8 -6 -3 -10 6 -12 4 -7
-9 4 -10 7 -21 7 -24 1 -12 33 62 35 81 3 23 0 22 -19 -8z"/>
<path d="M4675 4720 c0 -15 3 -26 8 -23 4 2 7 13 7 23 0 10 -3 21 -7 23 -5 3
-8 -8 -8 -23z"/>
<path d="M3776 4724 c1 -6 -3 -18 -9 -25 -7 -7 -3 -6 9 4 11 9 24 14 28 10 4
-4 4 1 0 11 -5 12 -9 14 -14 6 -4 -7 -10 -8 -12 -4 -3 5 -4 4 -2 -2z"/>
<path d="M4709 4738 c-8 -29 -5 -48 9 -59 15 -12 15 -12 5 2 -7 8 -10 25 -6
37 3 12 3 22 -1 22 -3 0 -6 -1 -7 -2z"/>
<path d="M3551 4717 c-1 -11 27 -77 33 -77 3 0 1 11 -4 25 -5 14 -7 33 -4 42
5 14 4 15 -4 4 -8 -11 -10 -11 -15 0 -3 8 -6 10 -6 6z"/>
<path d="M4860 4576 c0 -2 8 -10 18 -17 15 -13 16 -12 3 4 -13 16 -21 21 -21
13z"/>
<path d="M4906 4563 c-6 -14 -5 -15 5 -6 7 7 10 15 7 18 -3 3 -9 -2 -12 -12z"/>
<path d="M3184 4563 c3 -4 -1 -17 -9 -29 -9 -15 -11 -25 -5 -29 6 -4 9 -3 8 2
-5 16 23 54 35 47 7 -4 8 -3 4 1 -4 5 -15 10 -23 11 -9 1 -13 0 -10 -3z"/>
<path d="M3146 4531 c-15 -17 -15 -19 1 -32 15 -11 16 -11 6 1 -10 11 -9 17 4
32 9 10 14 18 11 18 -3 0 -12 -8 -22 -19z"/>
<path d="M4913 4515 c0 -8 4 -12 9 -9 5 3 6 10 3 15 -9 13 -12 11 -12 -6z"/>
<path d="M3191 4508 c-1 -9 4 -20 9 -23 6 -4 7 -11 4 -17 -4 -7 -2 -8 5 -4 8
5 9 12 3 19 -5 7 -12 19 -15 27 -4 12 -6 12 -6 -2z"/>
<path d="M3093 4503 c4 -6 0 -16 -8 -23 -12 -10 -13 -16 -4 -26 6 -8 8 -14 4
-14 -5 0 0 -9 10 -20 19 -20 19 -20 50 10 17 17 34 28 37 24 4 -3 6 0 5 8 -3
15 -22 23 -22 8 0 -5 -4 -10 -10 -10 -5 0 -10 4 -10 10 0 5 -7 15 -15 22 -12
11 -12 11 -1 -4 7 -10 10 -18 6 -18 -4 0 -2 -6 4 -13 8 -11 6 -18 -8 -31 -16
-15 -19 -15 -31 -1 -7 8 -9 15 -4 15 4 0 3 5 -4 12 -9 9 -8 16 4 29 12 13 12
19 3 25 -7 4 -10 3 -6 -3z"/>
<path d="M3105 4471 c-3 -5 -1 -12 5 -16 6 -4 7 -11 4 -17 -4 -7 -2 -8 5 -4 8
6 9 12 2 20 -6 7 -8 16 -4 19 3 4 4 7 0 7 -3 0 -8 -4 -12 -9z"/>
<path d="M4910 4466 c0 -2 8 -10 18 -17 15 -13 16 -12 3 4 -13 16 -21 21 -21
13z"/>
<path d="M3029 4437 c6 -8 7 -18 3 -22 -4 -5 -1 -5 6 -1 10 6 10 11 1 22 -6 8
-14 14 -16 14 -3 0 0 -6 6 -13z"/>
<path d="M3073 4412 c10 -10 14 -22 10 -27 -5 -4 -2 -5 5 -1 11 6 10 12 -4 27
-9 10 -19 19 -22 19 -3 0 2 -8 11 -18z"/>
<path d="M4916 4421 c-3 -5 1 -14 9 -21 8 -7 13 -16 10 -20 -3 -5 -1 -11 4
-14 13 -8 8 19 -7 36 -6 8 -9 18 -5 21 3 4 4 7 0 7 -3 0 -8 -4 -11 -9z"/>
<path d="M3013 4395 c0 -8 4 -12 9 -9 5 3 6 10 3 15 -9 13 -12 11 -12 -6z"/>
<path d="M3029 4373 c-13 -16 -12 -17 4 -4 16 13 21 21 13 21 -2 0 -10 -8 -17
-17z"/>
<path d="M2993 4373 c4 -3 1 -13 -6 -22 -11 -14 -10 -14 5 -2 16 12 16 31 1
31 -4 0 -3 -3 0 -7z"/>
<path d="M3049 4363 c-13 -16 -12 -17 4 -4 16 13 21 21 13 21 -2 0 -10 -8 -17
-17z"/>
<path d="M2399 2843 c-13 -16 -12 -17 4 -4 9 7 17 15 17 17 0 8 -8 3 -21 -13z"/>
<path d="M2326 2812 c-2 -4 -1 -14 5 -22 7 -12 9 -10 9 8 0 23 -5 28 -14 14z"/>
<path d="M2433 2803 c0 -9 4 -10 14 -2 7 6 13 12 13 14 0 1 -6 2 -13 2 -8 0
-14 -6 -14 -14z"/>
<path d="M2463 2785 c0 -8 4 -12 9 -9 5 3 6 10 3 15 -9 13 -12 11 -12 -6z"/>
<path d="M3619 2785 c-1 -3 -2 -8 -3 -12 -1 -5 -5 -13 -8 -19 -4 -6 1 -19 12
-29 11 -10 21 -16 21 -14 6 18 5 47 -2 43 -4 -2 -5 -12 -2 -22 6 -15 5 -15
-10 -3 -9 7 -14 18 -10 25 9 13 13 36 7 36 -2 0 -5 -2 -5 -5z"/>
<path d="M3544 2745 c0 -19 3 -32 5 -29 8 7 9 54 2 59 -4 2 -7 -12 -7 -30z"/>
<path d="M2516 2761 c-3 -5 1 -14 9 -21 8 -7 12 -17 8 -23 -4 -6 -1 -7 6 -3 9
6 9 12 -3 25 -9 10 -13 21 -9 24 3 4 4 7 0 7 -3 0 -8 -4 -11 -9z"/>
<path d="M3575 2742 c0 -16 8 -26 19 -28 16 -2 16 -1 2 15 -11 12 -12 21 -6
27 7 7 6 11 -3 11 -8 0 -13 -10 -12 -25z"/>
<path d="M2326 2752 c-3 -5 1 -9 9 -9 8 0 12 4 9 9 -3 4 -7 8 -9 8 -2 0 -6 -4
-9 -8z"/>
<path d="M2540 2756 c0 -2 8 -10 18 -17 15 -13 16 -12 3 4 -13 16 -21 21 -21
13z"/>
<path d="M3464 2736 c1 -8 5 -18 8 -22 4 -3 5 1 4 10 -1 8 -5 18 -8 22 -4 3
-5 -1 -4 -10z"/>
<path d="M3517 2735 c-4 -8 -3 -16 1 -19 4 -3 9 4 9 15 2 23 -3 25 -10 4z"/>
<path d="M3380 2735 c0 -2 6 -8 13 -14 10 -8 14 -7 14 2 0 8 -6 14 -14 14 -7
0 -13 -1 -13 -2z"/>
<path d="M2666 2721 c-3 -5 2 -15 12 -22 15 -12 16 -12 5 2 -7 9 -10 19 -6 22
3 4 4 7 0 7 -3 0 -8 -4 -11 -9z"/>
<path d="M2813 2718 c1 -7 -4 -12 -11 -10 -8 1 -11 -2 -7 -8 5 -8 11 -8 21 1
7 6 11 15 8 20 -8 13 -14 11 -11 -3z"/>
<path d="M3069 2713 c-13 -16 -12 -17 4 -4 16 13 21 21 13 21 -2 0 -10 -8 -17
-17z"/>
<path d="M2340 2715 c-6 -28 -4 -42 10 -65 9 -14 15 -35 14 -48 -1 -12 1 -20
4 -17 3 2 11 0 18 -6 10 -8 11 -16 4 -30 -8 -14 -6 -20 7 -28 10 -5 18 -17 18
-25 0 -22 20 -20 21 2 0 9 3 24 6 32 4 8 9 22 12 30 3 8 4 3 2 -12 -2 -19 4
-33 18 -45 12 -10 15 -11 9 -3 -7 8 -13 26 -13 41 0 15 -7 32 -15 39 -8 7 -15
9 -15 5 0 -4 -6 -3 -12 3 -7 6 -17 11 -23 11 -5 1 -10 9 -10 19 0 9 -7 17 -15
17 -8 0 -19 18 -26 45 -7 25 -13 41 -14 35z m47 -99 c-3 -8 1 -20 9 -26 8 -7
14 -9 14 -5 0 4 6 2 13 -4 8 -6 17 -7 22 -3 4 4 2 -3 -4 -15 -6 -13 -9 -23 -6
-23 4 0 3 -5 0 -10 -5 -8 -11 -8 -19 -1 -7 6 -17 7 -22 3 -4 -4 -2 1 5 11 12
15 11 21 -6 40 -18 19 -21 47 -6 47 3 0 3 -6 0 -14z"/>
<path d="M2415 2560 c2 -27 10 -33 12 -10 1 11 -2 22 -6 24 -4 3 -7 -4 -6 -14z"/>
<path d="M2535 2543 c-14 -32 -15 -54 -4 -74 6 -12 13 -18 16 -15 3 3 1 12 -6
19 -9 11 -8 17 3 26 12 10 18 7 31 -18 8 -17 15 -33 15 -36 0 -3 0 -8 0 -12 0
-5 9 7 20 25 22 35 26 57 10 47 -6 -4 -7 -11 -4 -17 5 -7 2 -8 -6 -3 -8 5 -11
4 -6 -3 3 -6 1 -14 -6 -18 -7 -4 -10 -4 -6 0 4 5 -3 24 -14 44 -12 22 -14 31
-6 24 8 -6 17 -9 21 -6 3 3 3 -4 0 -17 -4 -15 -3 -20 6 -15 6 4 9 11 6 16 -3
5 0 12 6 16 7 4 9 3 5 -4 -4 -7 0 -10 12 -7 14 2 17 -3 17 -31 -2 -44 35 -83
55 -59 7 8 9 15 6 15 -4 0 -2 9 4 21 15 27 40 8 34 -27 -7 -37 3 -29 26 22 17
39 22 45 35 34 13 -11 13 -15 0 -33 -11 -16 -12 -24 -3 -34 6 -8 7 -13 2 -11
-5 2 -10 0 -11 -4 -7 -19 -2 -20 17 -3 14 12 17 22 10 30 -6 8 -5 18 5 31 13
18 14 17 26 -14 8 -24 14 -30 24 -22 6 5 16 6 20 2 5 -4 5 -2 2 4 -4 7 0 17 8
24 8 7 12 17 8 23 -4 6 -9 3 -14 -9 -5 -13 -8 -14 -8 -4 0 8 4 22 9 30 9 13
10 13 10 0 0 -13 1 -13 10 0 8 11 9 8 6 -12 -6 -33 32 -88 45 -66 5 7 6 20 3
30 -8 26 13 31 30 7 8 -12 13 -26 11 -29 -3 -4 2 -13 10 -20 17 -14 19 -7 5
19 -6 13 -5 24 6 40 20 28 36 18 27 -17 -6 -24 -4 -25 10 -14 15 13 20 55 5
46 -5 -3 -11 2 -14 11 -6 13 -8 14 -15 3 -7 -10 -9 -10 -9 2 0 13 -1 13 -10 0
-13 -21 -79 -21 -90 1 -10 17 -25 20 -47 6 -6 -4 -14 -3 -18 3 -4 6 -12 7 -18
3 -21 -13 -82 -11 -99 4 -9 8 -18 10 -21 5 -5 -7 -77 -9 -84 -2 -2 1 -7 4 -13
5 -5 1 -12 4 -15 5 -3 1 -10 3 -15 4 -6 0 -15 8 -20 16 -9 13 -10 13 -10 0 0
-13 -1 -13 -10 0 -9 13 -10 13 -10 0 0 -12 -2 -12 -9 -2 -6 11 -10 10 -16 -5z
m26 -20 c7 -10 9 -15 5 -11 -5 4 -15 3 -22 -3 -11 -9 -13 2 -5 29 2 6 10 1 22
-15z m205 -48 c-5 -15 -9 -15 -22 -4 -21 17 -44 20 -44 6 0 -7 -8 -21 -17 -32
-11 -14 -14 -15 -10 -4 3 9 0 22 -6 28 -24 24 -16 38 24 36 22 -1 42 2 46 7 9
16 36 -19 29 -37z m109 -2 c-4 -18 -2 -23 6 -17 8 5 9 3 4 -6 -6 -10 -11 -9
-22 5 -14 20 -17 38 -7 48 13 13 25 -6 19 -30z m-35 21 c0 -8 -19 -13 -24 -6
-3 5 1 9 9 9 8 0 15 -2 15 -3z m123 -54 c-6 -6 -13 -3 -14 8 -1 4 -5 16 -11
27 -6 14 -3 13 11 -5 11 -14 17 -27 14 -30z m77 46 c0 -2 -6 -9 -14 -15 -11
-9 -16 -9 -22 0 -4 7 -3 9 4 5 6 -3 13 -2 17 4 6 10 15 14 15 6z"/>
<path d="M2736 2501 c-3 -5 1 -14 9 -21 12 -10 15 -10 15 3 0 19 -16 31 -24
18z"/>
<path d="M2665 2489 c-3 -3 1 -12 9 -18 11 -9 15 -7 18 7 5 18 -18 27 -27 11z"/>
<path d="M2861 2484 c0 -11 3 -14 6 -6 3 7 2 16 -1 19 -3 4 -6 -2 -5 -13z"/>
<path d="M4847 4684 c-3 -3 -1 -17 5 -30 8 -17 14 -21 19 -12 6 9 11 9 23 -1
9 -8 16 -10 16 -6 0 5 8 1 18 -8 16 -15 18 -15 19 3 2 26 -23 46 -31 24 -5
-13 -9 -14 -21 -4 -8 7 -12 17 -8 24 3 6 3 8 -2 4 -4 -4 -13 -3 -20 2 -7 5
-15 7 -18 4z m21 -29 c-3 -3 -9 2 -12 12 -6 14 -5 15 5 6 7 -7 10 -15 7 -18z"/>
<path d="M5019 4576 c12 -16 21 -39 21 -52 0 -12 4 -25 9 -28 5 -3 8 -24 6
-46 -3 -43 12 -72 39 -76 16 -2 16 0 2 21 -16 24 -16 61 0 85 5 8 9 26 9 39 1
23 1 23 -22 -5 -19 -25 -23 -26 -29 -11 -4 11 1 26 12 40 10 12 12 16 4 10
-11 -10 -19 -7 -43 20 -24 27 -26 28 -8 3z m67 -91 c-9 -14 -14 -30 -11 -35 3
-5 1 -11 -3 -14 -5 -3 -9 2 -8 12 2 19 24 62 33 62 3 0 -2 -11 -11 -25z m-6
-85 c6 -11 8 -20 6 -20 -3 0 -10 9 -16 20 -6 11 -8 20 -6 20 3 0 10 -9 16 -20z"/>
<path d="M4979 4543 c-1 -5 -3 -31 -4 -60 -1 -28 -6 -56 -10 -62 -3 -6 -1 -10
6 -9 6 2 12 -7 14 -19 1 -13 5 -26 10 -30 4 -5 4 3 0 17 -7 22 -6 23 8 11 9
-7 15 -17 12 -20 -2 -4 2 -8 9 -8 14 0 16 14 4 33 -4 6 -6 21 -3 33 2 14 0 19
-7 15 -6 -4 -9 -1 -6 7 7 19 -10 51 -23 44 -6 -4 -7 5 -4 24 3 17 3 31 0 31
-3 0 -6 -3 -6 -7z m24 -89 c-2 -6 1 -15 6 -19 6 -3 9 -11 5 -16 -3 -5 0 -18 7
-27 8 -9 1 -6 -14 7 -24 22 -33 58 -19 85 7 12 21 -15 15 -30z"/>
<path d="M2361 2775 c0 -5 6 -18 14 -29 13 -18 14 -18 12 2 0 11 -4 19 -8 16
-4 -2 -10 2 -12 8 -3 7 -6 9 -6 3z"/>
<path d="M2416 2682 c-7 -11 -2 -34 12 -57 l12 -20 -3 20 c-1 11 -6 26 -10 33
-5 6 -5 17 -2 22 3 6 4 10 1 10 -3 0 -7 -4 -10 -8z"/>
<path d="M2484 2668 c-4 -13 -9 -30 -10 -38 -4 -18 15 -42 27 -34 5 3 9 -1 9
-8 0 -10 3 -9 9 1 6 9 6 22 0 34 -6 10 -8 25 -5 33 3 9 1 12 -4 9 -6 -3 -10
-13 -10 -21 0 -8 -5 -12 -10 -9 -7 4 -6 13 1 26 6 12 8 23 6 26 -3 2 -9 -6
-13 -19z m16 -48 c5 9 9 8 13 -3 4 -10 0 -14 -11 -13 -9 2 -17 8 -18 15 -2 8
-1 8 3 0 4 -8 7 -8 13 1z"/>
<path d="M2705 2559 c-4 -6 -5 -12 -2 -15 2 -3 7 2 10 11 7 17 1 20 -8 4z"/>
<path d="M2560 2615 c0 -5 5 -17 10 -25 5 -8 10 -10 10 -5 0 6 -5 17 -10 25
-5 8 -10 11 -10 5z"/>
<path d="M2591 2594 c0 -11 3 -14 6 -6 3 7 2 16 -1 19 -3 4 -6 -2 -5 -13z"/>
<path d="M2615 2599 c-8 -12 0 -22 20 -25 8 -1 13 2 9 7 -3 5 -10 6 -16 3 -7
-5 -9 -1 -5 9 7 19 2 23 -8 6z"/>
<path d="M2964 2593 c-6 -10 -7 -29 -3 -43 l7 -25 1 25 c1 19 3 22 10 10 6 -8
7 -19 4 -25 -3 -5 2 -3 12 6 13 13 15 21 6 35 -6 11 -11 14 -11 6 0 -7 -4 -11
-10 -7 -5 3 -7 12 -3 20 7 20 0 19 -13 -2z"/>
<path d="M3071 2552 c6 -13 13 -21 16 -18 4 3 13 0 22 -6 13 -10 14 -10 4 2
-16 18 -17 34 -1 24 7 -5 8 -3 3 6 -6 10 -10 10 -20 -3 -10 -14 -12 -14 -23 1
-10 14 -10 13 -1 -6z"/>
<path d="M2941 2544 c0 -11 3 -14 6 -6 3 7 2 16 -1 19 -3 4 -6 -2 -5 -13z"/>
<path d="M2829 2574 c0 -5 -2 -16 -4 -25 -1 -9 3 -16 10 -16 8 0 12 9 9 20 -4
22 -14 35 -15 21z"/>
</g>
</svg>
