<svg id="svg" version="1.1" xmlns="http://www.w3.org/2000/svg" xmlns:xlink="http://www.w3.org/1999/xlink" width="30px" height="30px" viewBox="0, 0, 400,400"><g id="svgg"><path id="path0" d="M97.266 113.303 C 95.654 113.475,93.740 113.798,93.011 114.023 C 92.282 114.247,91.508 114.321,91.290 114.186 C 91.047 114.036,91.018 114.141,91.215 114.459 C 91.447 114.835,91.356 114.908,90.884 114.727 C 90.527 114.590,90.234 114.658,90.234 114.879 C 90.234 115.100,90.065 115.176,89.858 115.048 C 88.962 114.494,82.977 118.972,80.641 121.944 C 74.628 129.598,74.961 124.819,75.100 201.591 C 75.229 272.433,75.101 268.282,77.290 272.548 L 77.948 273.831 79.932 271.584 C 81.023 270.347,100.556 253.706,123.338 234.603 L 164.761 199.870 135.994 175.258 C 120.172 161.722,100.854 145.191,93.066 138.524 C 85.278 131.857,78.906 126.246,78.906 126.054 C 78.906 125.862,79.565 126.246,80.371 126.907 C 81.924 128.181,111.438 150.274,152.148 180.637 C 165.684 190.732,178.050 200.090,179.629 201.431 C 191.446 211.473,208.470 211.351,220.703 201.139 C 222.529 199.614,225.254 197.465,226.758 196.363 C 244.224 183.568,318.868 128.099,319.824 127.205 C 321.269 125.855,321.474 126.103,320.289 127.768 C 319.846 128.389,300.598 144.841,277.515 164.326 C 254.433 183.811,235.547 199.873,235.547 200.018 C 235.547 200.164,253.960 215.927,276.465 235.049 C 314.683 267.521,320.703 272.797,320.703 273.819 C 320.703 274.503,320.318 274.286,317.422 271.973 C 315.876 270.737,295.333 255.245,271.772 237.544 L 228.933 205.362 225.506 208.247 C 223.622 209.834,221.137 212.010,219.985 213.082 C 208.060 224.180,191.865 223.853,179.053 212.254 C 173.581 207.301,171.299 205.468,170.825 205.644 C 169.812 206.021,82.109 271.284,80.446 272.899 C 79.466 273.850,78.534 274.498,78.374 274.338 C 77.655 273.619,78.771 275.769,80.003 277.476 C 81.857 280.044,85.620 283.104,88.577 284.447 C 93.900 286.864,86.192 286.707,199.254 286.713 C 312.859 286.719,305.105 286.869,309.841 284.573 C 310.953 284.034,311.027 284.031,310.375 284.551 C 309.958 284.884,309.445 285.156,309.235 285.156 C 309.026 285.156,308.959 285.261,309.087 285.389 C 310.391 286.693,319.588 278.565,321.948 274.023 C 325.022 268.108,324.767 274.372,324.900 201.591 C 325.036 126.817,325.326 133.162,321.354 124.219 C 319.725 120.551,312.475 115.282,307.011 113.794 C 304.283 113.052,104.045 112.583,97.266 113.303 " stroke="none" fill="#e8e8de" fill-rule="evenodd"></path><path id="path1" d="M181.836 0.620 C 134.165 4.918,89.989 26.014,56.480 60.483 C 42.990 74.360,32.848 88.188,23.346 105.664 C 21.112 109.772,19.869 112.353,16.019 120.875 C 8.708 137.058,3.317 157.963,0.703 180.273 C 0.020 186.098,0.017 212.988,0.698 219.336 C 4.398 253.812,15.012 283.464,33.652 311.397 C 36.327 315.406,42.320 323.679,42.940 324.219 C 43.063 324.326,43.864 325.293,44.719 326.367 C 45.573 327.441,46.452 328.513,46.672 328.749 C 46.891 328.985,47.949 330.216,49.023 331.484 C 58.490 342.657,71.657 354.408,86.719 365.125 C 144.490 406.232,226.290 411.450,291.211 378.170 C 300.649 373.331,305.747 370.276,314.452 364.243 C 395.632 307.975,423.360 199.633,379.281 110.938 C 342.517 36.958,264.190 -6.805,181.836 0.620 M307.065 113.345 C 314.554 116.026,319.794 120.534,322.633 126.739 C 325.171 132.284,325.025 127.151,324.910 207.124 L 324.805 279.883 323.758 282.748 C 320.940 290.462,315.462 295.940,307.748 298.758 L 304.883 299.805 200.000 299.805 L 95.117 299.805 92.252 298.758 C 84.538 295.940,79.060 290.462,76.242 282.748 L 75.195 279.883 75.078 207.422 C 74.993 154.386,75.081 134.333,75.407 132.617 C 77.144 123.469,84.921 115.326,94.036 113.109 C 97.736 112.209,304.531 112.438,307.065 113.345 " stroke="none" fill="#74b4d4" fill-rule="evenodd"></path><path id="path2" d="M75.133 273.047 C 75.357 286.371,80.826 294.584,92.252 298.758 L 95.117 299.805 200.000 299.805 L 304.883 299.805 307.748 298.758 C 319.168 294.587,324.634 286.382,324.877 273.047 L 325.001 266.211 324.291 268.752 C 321.845 277.504,314.470 284.743,305.834 286.869 C 301.424 287.955,98.256 287.821,93.988 286.730 C 84.771 284.372,77.926 277.546,75.569 268.359 C 75.043 266.309,75.023 266.523,75.133 273.047 " stroke="none" fill="#6494b4" fill-rule="evenodd"></path><path id="path3" d="M167.676 197.304 C 166.118 198.606,164.857 199.789,164.873 199.933 C 164.921 200.355,170.602 205.078,171.062 205.078 C 171.369 205.078,177.101 201.076,178.042 200.205 C 178.218 200.041,171.241 194.921,170.854 194.929 C 170.663 194.934,169.233 196.002,167.676 197.304 M225.613 197.282 C 223.909 198.554,222.371 199.738,222.196 199.913 C 221.852 200.257,228.109 205.078,228.900 205.078 C 229.389 205.078,235.156 200.397,235.156 200.000 C 235.156 199.661,229.422 194.919,229.045 194.946 C 228.861 194.959,227.317 196.010,225.613 197.282 " stroke="none" fill="#9e9e95" fill-rule="evenodd"></path><path id="path4" d="M93.848 113.145 C 92.505 113.465,91.406 113.900,91.406 114.113 C 91.406 114.325,91.230 114.391,91.016 114.258 C 90.801 114.125,90.625 114.221,90.625 114.472 C 90.625 114.753,90.887 114.819,91.309 114.646 C 95.276 113.011,90.038 113.086,200.195 113.086 C 296.049 113.086,304.298 113.137,306.638 113.739 C 309.768 114.545,310.139 114.381,307.352 113.424 C 304.440 112.423,98.014 112.154,93.848 113.145 M78.906 126.060 C 78.906 126.380,163.791 199.244,164.508 199.539 C 164.675 199.608,166.189 198.542,167.873 197.172 L 170.934 194.680 126.385 161.394 C 101.883 143.086,81.177 127.567,80.371 126.906 C 79.565 126.246,78.906 125.865,78.906 126.060 M320.176 126.888 C 319.817 127.285,299.172 142.708,274.298 161.161 L 229.074 194.713 232.115 197.235 C 235.777 200.273,235.761 199.710,232.267 202.649 C 228.780 205.582,229.043 205.568,225.621 203.004 C 224.098 201.863,222.624 200.794,222.346 200.627 C 222.023 200.433,220.895 201.054,219.221 202.346 C 207.936 211.059,191.192 210.977,180.472 202.156 C 177.844 199.994,178.413 199.938,174.641 202.734 C 170.779 205.598,171.254 205.612,167.708 202.520 C 165.170 200.306,164.688 200.030,164.133 200.469 C 143.759 216.581,76.961 273.766,78.078 274.138 C 78.295 274.210,78.364 274.550,78.233 274.893 C 78.101 275.236,78.759 274.686,79.695 273.670 C 81.145 272.097,169.516 206.131,170.826 205.643 C 171.299 205.468,173.583 207.303,179.053 212.254 C 191.865 223.853,208.060 224.180,219.985 213.082 C 221.137 212.010,223.622 209.834,225.506 208.247 L 228.933 205.362 271.772 237.544 C 295.333 255.245,315.876 270.737,317.422 271.973 C 320.318 274.286,320.703 274.503,320.703 273.819 C 320.703 272.797,314.683 267.521,276.465 235.049 C 253.960 215.927,235.547 200.164,235.547 200.018 C 235.547 199.873,254.433 183.811,277.515 164.326 C 300.598 144.841,319.865 128.362,320.331 127.708 C 321.286 126.367,321.176 125.784,320.176 126.888 M317.368 280.176 L 315.430 282.227 317.480 280.288 C 319.386 278.487,319.710 278.125,319.419 278.125 C 319.357 278.125,318.434 279.048,317.368 280.176 M309.655 284.605 C 305.504 286.856,312.673 286.721,199.059 286.696 C 87.886 286.672,94.576 286.776,89.648 284.998 C 89.188 284.832,89.269 284.951,89.848 285.290 C 93.480 287.417,86.199 287.275,198.633 287.419 C 302.184 287.551,307.031 287.499,307.031 286.251 C 307.031 286.033,307.295 285.955,307.617 286.079 C 307.939 286.202,308.203 286.139,308.203 285.938 C 308.203 285.736,308.496 285.684,308.853 285.821 C 309.328 286.003,309.416 285.929,309.180 285.547 C 308.941 285.161,309.033 285.091,309.527 285.281 C 309.978 285.454,310.106 285.390,309.917 285.085 C 309.737 284.793,309.845 284.712,310.222 284.857 C 310.571 284.991,310.807 284.860,310.807 284.533 C 310.807 284.231,310.793 283.991,310.775 284.000 C 310.757 284.009,310.253 284.281,309.655 284.605 " stroke="none" fill="#a9c1c7" fill-rule="evenodd"></path></g></svg>