<svg id="svg" version="1.1" xmlns="http://www.w3.org/2000/svg" xmlns:xlink="http://www.w3.org/1999/xlink" width="30px" height="30px" viewBox="0, 0, 400,400"><g id="svgg"><path id="path0" d="M187.700 0.276 C 188.085 0.376,188.715 0.376,189.100 0.276 C 189.485 0.175,189.170 0.093,188.400 0.093 C 187.630 0.093,187.315 0.175,187.700 0.276 M210.900 0.276 C 211.285 0.376,211.915 0.376,212.300 0.276 C 212.685 0.175,212.370 0.093,211.600 0.093 C 210.830 0.093,210.515 0.175,210.900 0.276 M124.812 13.984 C 124.488 14.189,124.321 14.454,124.441 14.574 C 124.560 14.694,125.005 14.529,125.429 14.209 C 126.273 13.571,125.760 13.385,124.812 13.984 M120.012 15.984 C 119.688 16.189,119.521 16.454,119.641 16.574 C 119.760 16.694,120.205 16.529,120.629 16.209 C 121.473 15.571,120.960 15.385,120.012 15.984 M280.000 16.424 C 280.000 16.657,280.180 16.736,280.400 16.600 C 280.620 16.464,280.800 16.505,280.800 16.691 C 280.800 16.877,281.205 17.057,281.700 17.091 C 282.576 17.150,282.573 17.137,281.600 16.590 C 280.385 15.907,280.000 15.867,280.000 16.424 M118.057 16.756 C 117.679 16.996,117.649 17.183,117.957 17.374 C 118.201 17.524,118.400 17.446,118.400 17.200 C 118.400 16.954,118.580 16.864,118.800 17.000 C 119.020 17.136,119.200 17.057,119.200 16.824 C 119.200 16.314,118.792 16.290,118.057 16.756 M115.000 18.072 C 114.120 18.532,113.340 19.065,113.266 19.257 C 113.192 19.448,112.990 19.518,112.817 19.411 C 112.645 19.304,112.092 19.573,111.590 20.008 C 111.088 20.444,110.792 20.800,110.932 20.800 C 111.489 20.800,117.200 17.804,117.200 17.512 C 117.200 17.041,116.756 17.154,115.000 18.072 M282.800 17.537 C 282.800 17.955,288.087 20.446,288.371 20.162 C 288.663 19.870,287.505 19.212,287.119 19.450 C 286.944 19.558,286.800 19.492,286.800 19.303 C 286.800 19.114,285.985 18.564,284.989 18.080 C 282.969 17.098,282.800 17.056,282.800 17.537 M104.700 23.627 C 103.875 24.063,103.200 24.508,103.200 24.618 C 103.200 24.727,103.920 24.449,104.800 24.000 C 105.680 23.551,106.400 23.097,106.400 22.992 C 106.400 22.730,106.397 22.731,104.700 23.627 M294.400 23.379 C 294.400 23.489,294.940 23.859,295.600 24.200 C 296.260 24.541,296.800 24.731,296.800 24.621 C 296.800 24.511,296.260 24.141,295.600 23.800 C 294.940 23.459,294.400 23.269,294.400 23.379 M98.600 26.876 C 95.747 28.487,88.387 33.321,88.546 33.479 C 88.652 33.585,89.830 32.931,91.164 32.025 C 92.498 31.119,95.076 29.483,96.895 28.390 C 99.681 26.713,101.069 25.482,98.600 26.876 M303.105 28.390 C 304.924 29.483,307.502 31.119,308.836 32.025 C 310.170 32.931,311.348 33.585,311.454 33.479 C 311.758 33.175,300.915 26.399,300.126 26.401 C 299.947 26.401,301.287 27.296,303.105 28.390 M86.300 34.702 C 85.475 35.256,84.800 35.885,84.800 36.102 C 84.800 36.413,86.086 35.613,87.967 34.131 C 88.818 33.460,87.456 33.927,86.300 34.702 M76.318 42.127 C 70.925 46.455,71.058 46.808,76.516 42.652 C 78.212 41.360,79.600 40.145,79.600 39.952 C 79.600 39.471,79.761 39.364,76.318 42.127 M320.451 39.902 C 320.696 40.555,327.600 45.917,327.600 45.454 C 327.600 45.348,325.958 43.966,323.951 42.383 C 321.944 40.800,320.369 39.683,320.451 39.902 M68.800 48.443 C 67.370 49.779,66.920 50.320,67.800 49.645 C 70.536 47.546,72.217 46.022,71.800 46.017 C 71.580 46.015,70.230 47.106,68.800 48.443 M328.000 46.154 C 328.000 46.239,328.495 46.627,329.100 47.016 L 330.200 47.724 329.438 46.862 C 328.764 46.099,328.000 45.723,328.000 46.154 M330.400 48.133 C 330.400 48.206,331.165 48.866,332.100 49.598 L 333.800 50.930 332.422 49.465 C 331.238 48.207,330.400 47.655,330.400 48.133 M62.589 54.074 L 59.800 56.948 62.700 54.433 C 65.112 52.341,66.096 51.200,65.489 51.200 C 65.428 51.200,64.123 52.493,62.589 54.074 M334.400 51.560 C 334.400 51.759,335.525 52.872,336.900 54.034 L 339.400 56.147 337.013 53.674 C 334.496 51.066,334.400 50.989,334.400 51.560 M345.628 62.800 C 346.997 64.340,348.310 65.600,348.548 65.600 C 348.785 65.600,347.728 64.340,346.200 62.800 C 344.672 61.260,343.358 60.000,343.280 60.000 C 343.203 60.000,344.259 61.260,345.628 62.800 M53.588 63.047 C 52.165 64.503,51.256 65.618,51.568 65.524 C 52.088 65.369,56.715 60.400,56.340 60.400 C 56.250 60.400,55.012 61.591,53.588 63.047 M48.234 68.944 C 47.005 70.344,46.005 71.649,46.011 71.844 C 46.021 72.188,47.082 71.036,49.643 67.900 C 51.633 65.462,50.654 66.188,48.234 68.944 M350.861 68.341 C 351.818 69.518,352.911 70.868,353.291 71.341 C 353.671 71.813,353.983 72.020,353.985 71.800 C 353.986 71.580,352.892 70.230,351.555 68.800 C 349.401 66.497,349.322 66.445,350.861 68.341 M42.383 76.049 C 40.800 78.056,39.683 79.631,39.902 79.549 C 40.555 79.304,45.917 72.400,45.454 72.400 C 45.348 72.400,43.966 74.042,42.383 76.049 M354.680 72.927 C 355.521 74.312,359.813 79.600,360.096 79.600 C 360.273 79.600,359.140 77.980,357.578 76.000 C 355.043 72.786,353.785 71.452,354.680 72.927 M189.107 75.490 C 189.826 75.579,190.906 75.577,191.507 75.486 C 192.108 75.395,191.520 75.322,190.200 75.324 C 188.880 75.326,188.388 75.401,189.107 75.490 M207.900 75.489 C 208.615 75.578,209.785 75.578,210.500 75.489 C 211.215 75.401,210.630 75.328,209.200 75.328 C 207.770 75.328,207.185 75.401,207.900 75.489 M180.305 75.883 C 180.802 75.979,181.522 75.975,181.905 75.875 C 182.287 75.775,181.880 75.696,181.000 75.701 C 180.120 75.705,179.807 75.787,180.305 75.883 M217.905 75.883 C 218.402 75.979,219.122 75.975,219.505 75.875 C 219.887 75.775,219.480 75.696,218.600 75.701 C 217.720 75.705,217.407 75.787,217.905 75.883 M251.600 80.000 C 251.600 80.220,251.870 80.400,252.200 80.400 C 252.530 80.400,252.800 80.220,252.800 80.000 C 252.800 79.780,252.530 79.600,252.200 79.600 C 251.870 79.600,251.600 79.780,251.600 80.000 M253.600 80.400 C 253.600 80.620,253.870 80.800,254.200 80.800 C 254.530 80.800,254.800 80.620,254.800 80.400 C 254.800 80.180,254.530 80.000,254.200 80.000 C 253.870 80.000,253.600 80.180,253.600 80.400 M143.200 80.800 C 143.200 81.020,143.470 81.200,143.800 81.200 C 144.130 81.200,144.400 81.020,144.400 80.800 C 144.400 80.580,144.130 80.400,143.800 80.400 C 143.470 80.400,143.200 80.580,143.200 80.800 M257.200 81.200 C 257.200 81.420,257.470 81.600,257.800 81.600 C 258.130 81.600,258.400 81.420,258.400 81.200 C 258.400 80.980,258.130 80.800,257.800 80.800 C 257.470 80.800,257.200 80.980,257.200 81.200 M35.619 84.972 C 34.928 85.977,34.505 86.796,34.681 86.791 C 35.120 86.780,37.335 83.602,37.082 83.348 C 36.969 83.236,36.311 83.966,35.619 84.972 M364.704 86.385 C 366.141 88.462,366.726 88.476,365.353 86.400 C 364.770 85.520,364.139 84.800,363.951 84.800 C 363.762 84.800,364.101 85.513,364.704 86.385 M126.400 85.600 C 126.400 86.101,126.824 86.101,127.600 85.600 C 128.085 85.286,128.028 85.211,127.300 85.206 C 126.805 85.203,126.400 85.380,126.400 85.600 M122.703 87.030 C 122.577 87.157,122.232 87.299,121.937 87.346 C 121.641 87.393,121.040 87.658,120.600 87.935 C 119.855 88.404,119.869 88.420,120.800 88.169 C 122.062 87.830,123.944 86.837,123.367 86.816 C 123.128 86.807,122.830 86.904,122.703 87.030 M30.303 93.077 C 27.090 98.163,26.400 99.366,26.401 99.874 C 26.401 100.053,27.296 98.713,28.390 96.895 C 29.483 95.076,31.119 92.498,32.025 91.164 C 32.931 89.830,33.585 88.652,33.479 88.546 C 33.373 88.440,31.944 90.479,30.303 93.077 M366.400 88.542 C 366.400 88.708,367.125 89.912,368.011 91.216 C 368.897 92.521,370.517 95.076,371.610 96.895 C 372.704 98.713,373.599 99.999,373.599 99.754 C 373.600 99.312,367.493 89.347,366.775 88.620 C 366.569 88.411,366.400 88.376,366.400 88.542 M111.900 91.825 C 110.415 92.587,109.200 93.301,109.200 93.411 C 109.200 93.589,114.760 90.927,115.167 90.553 C 115.714 90.051,114.237 90.625,111.900 91.825 M290.000 93.208 C 290.665 93.672,298.994 98.656,300.100 99.251 C 300.485 99.459,300.800 99.543,300.800 99.440 C 300.800 99.197,292.638 94.303,290.800 93.443 C 290.030 93.083,289.670 92.977,290.000 93.208 M107.400 94.266 C 104.808 95.635,99.559 98.892,99.706 99.040 C 99.841 99.174,108.240 94.294,108.748 93.785 C 109.076 93.457,108.629 93.617,107.400 94.266 M23.600 104.800 C 23.151 105.680,22.874 106.400,22.984 106.400 C 23.094 106.400,23.551 105.680,24.000 104.800 C 24.449 103.920,24.726 103.200,24.616 103.200 C 24.506 103.200,24.049 103.920,23.600 104.800 M376.200 105.200 C 376.757 106.300,377.303 107.200,377.413 107.200 C 377.523 107.200,377.157 106.300,376.600 105.200 C 376.043 104.100,375.497 103.200,375.387 103.200 C 375.277 103.200,375.643 104.100,376.200 105.200 M308.000 105.200 C 308.770 105.848,309.580 106.378,309.800 106.378 C 310.020 106.378,309.570 105.848,308.800 105.200 C 308.030 104.552,307.220 104.022,307.000 104.022 C 306.780 104.022,307.230 104.552,308.000 105.200 M89.544 106.387 C 89.025 106.819,88.797 107.179,89.038 107.187 C 89.279 107.194,89.802 106.840,90.200 106.400 C 91.126 105.376,90.766 105.369,89.544 106.387 M310.800 107.400 C 311.074 107.730,311.478 108.000,311.698 108.000 C 311.921 108.000,311.878 107.735,311.600 107.400 C 311.326 107.070,310.922 106.800,310.702 106.800 C 310.479 106.800,310.522 107.065,310.800 107.400 M313.170 109.346 C 313.703 109.926,314.310 110.400,314.519 110.400 C 315.056 110.400,314.028 109.240,313.033 108.724 C 312.290 108.338,312.304 108.405,313.170 109.346 M188.900 109.076 C 189.285 109.176,189.915 109.176,190.300 109.076 C 190.685 108.975,190.370 108.893,189.600 108.893 C 188.830 108.893,188.515 108.975,188.900 109.076 M210.100 109.076 C 210.485 109.176,211.115 109.176,211.500 109.076 C 211.885 108.975,211.570 108.893,210.800 108.893 C 210.030 108.893,209.715 108.975,210.100 109.076 M84.785 110.384 C 84.023 111.035,83.591 111.575,83.825 111.584 C 84.059 111.593,84.768 111.060,85.400 110.400 C 86.868 108.867,86.568 108.859,84.785 110.384 M316.200 112.000 C 316.832 112.660,317.530 113.200,317.750 113.200 C 317.970 113.200,317.632 112.660,317.000 112.000 C 316.368 111.340,315.670 110.800,315.450 110.800 C 315.230 110.800,315.568 111.340,316.200 112.000 M379.200 111.008 C 379.200 111.154,380.053 112.922,381.096 114.936 C 382.139 116.951,382.949 118.735,382.896 118.900 C 382.843 119.065,382.980 119.200,383.200 119.200 C 383.795 119.200,383.737 119.009,382.024 115.354 C 380.653 112.430,379.200 110.193,379.200 111.008 M19.600 112.000 C 19.600 112.220,19.615 112.515,19.634 112.655 C 19.653 112.796,19.497 113.021,19.288 113.155 C 18.920 113.392,17.200 116.546,17.200 116.984 C 17.200 117.689,17.956 116.985,18.578 115.700 C 20.028 112.705,20.412 111.600,20.005 111.600 C 19.782 111.600,19.600 111.780,19.600 112.000 M78.502 116.100 C 74.288 120.232,71.612 123.582,70.049 126.684 C 68.684 129.391,69.091 129.236,70.574 126.484 C 72.447 123.008,74.218 120.863,79.148 116.100 C 81.481 113.845,83.232 112.000,83.037 112.000 C 82.843 112.000,80.802 113.845,78.502 116.100 M321.306 116.402 C 324.264 119.113,327.472 123.259,329.449 126.927 C 331.031 129.862,331.257 129.679,329.746 126.687 C 327.736 122.707,320.409 114.000,319.070 114.000 C 318.858 114.000,319.864 115.081,321.306 116.402 M156.976 117.819 C 155.669 118.599,154.420 119.458,154.200 119.728 C 153.980 119.997,152.879 120.887,151.753 121.704 C 150.627 122.522,149.457 123.497,149.153 123.871 C 148.713 124.412,154.443 120.367,155.200 119.602 C 155.310 119.491,156.075 119.057,156.900 118.637 C 157.725 118.217,158.400 117.712,158.400 117.513 C 158.400 117.315,158.580 117.264,158.800 117.400 C 159.020 117.536,159.200 117.446,159.200 117.200 C 159.200 116.954,159.380 116.864,159.600 117.000 C 159.820 117.136,160.000 117.057,160.000 116.824 C 160.000 116.147,159.502 116.311,156.976 117.819 M240.000 116.824 C 240.000 117.057,240.180 117.136,240.400 117.000 C 240.620 116.864,240.800 116.905,240.800 117.090 C 240.800 117.415,242.875 118.800,243.362 118.800 C 244.065 118.800,243.410 118.041,242.046 117.274 C 240.288 116.286,240.000 116.223,240.000 116.824 M16.642 118.235 C 16.313 119.092,16.333 119.200,16.824 119.200 C 17.057 119.200,17.145 119.035,17.021 118.834 C 16.897 118.633,17.012 118.396,17.278 118.307 C 17.617 118.194,17.630 118.066,17.322 117.876 C 17.081 117.727,16.775 117.888,16.642 118.235 M244.031 119.100 C 244.063 119.405,250.400 123.706,250.400 123.423 C 250.400 123.338,249.457 122.578,248.304 121.734 C 247.152 120.890,245.892 119.885,245.504 119.500 C 244.783 118.783,243.976 118.564,244.031 119.100 M254.187 127.313 C 255.954 129.135,257.480 130.569,257.579 130.501 C 257.782 130.359,251.538 124.000,251.196 124.000 C 251.074 124.000,252.420 125.491,254.187 127.313 M146.401 126.198 C 145.886 126.748,145.552 127.286,145.661 127.394 C 145.769 127.503,146.374 127.054,147.004 126.396 C 147.634 125.738,147.967 125.200,147.745 125.200 C 147.522 125.200,146.917 125.649,146.401 126.198 M142.606 130.700 C 141.613 131.965,140.800 133.165,140.800 133.367 C 140.800 133.568,140.858 133.658,140.929 133.567 C 143.102 130.767,144.797 128.400,144.629 128.400 C 144.510 128.400,143.599 129.435,142.606 130.700 M258.329 131.800 C 258.552 132.240,259.066 132.960,259.471 133.400 C 259.876 133.840,260.656 135.055,261.203 136.100 C 261.751 137.145,262.345 138.000,262.523 138.000 C 262.701 138.000,262.736 138.180,262.600 138.400 C 262.464 138.620,262.554 138.800,262.800 138.800 C 263.046 138.800,263.136 138.980,263.000 139.200 C 262.864 139.420,262.943 139.600,263.176 139.600 C 263.796 139.600,263.723 139.343,262.396 136.853 C 261.303 134.803,257.377 129.925,258.329 131.800 M137.864 137.154 C 136.682 139.326,136.610 139.600,137.224 139.600 C 137.457 139.600,137.536 139.420,137.400 139.200 C 137.264 138.980,137.354 138.800,137.600 138.800 C 137.846 138.800,137.936 138.620,137.800 138.400 C 137.664 138.180,137.705 138.000,137.890 138.000 C 138.215 138.000,139.600 135.925,139.600 135.438 C 139.600 134.658,138.783 135.466,137.864 137.154 M66.973 148.000 C 66.973 153.390,67.030 155.595,67.099 152.900 C 67.168 150.205,67.168 145.795,67.099 143.100 C 67.030 140.405,66.973 142.610,66.973 148.000 M164.200 142.000 C 164.060 142.227,164.396 142.400,164.976 142.400 C 165.539 142.400,166.000 142.220,166.000 142.000 C 166.000 141.780,165.651 141.600,165.224 141.600 C 164.797 141.600,164.336 141.780,164.200 142.000 M168.000 142.000 C 168.000 142.220,168.371 142.400,168.824 142.400 C 169.277 142.400,169.536 142.220,169.400 142.000 C 169.264 141.780,168.893 141.600,168.576 141.600 C 168.259 141.600,168.000 141.780,168.000 142.000 M231.000 142.000 C 230.864 142.220,231.123 142.400,231.576 142.400 C 232.029 142.400,232.400 142.220,232.400 142.000 C 232.400 141.780,232.141 141.600,231.824 141.600 C 231.507 141.600,231.136 141.780,231.000 142.000 M234.800 142.000 C 234.800 142.220,235.160 142.400,235.600 142.400 C 236.040 142.400,236.400 142.220,236.400 142.000 C 236.400 141.780,236.040 141.600,235.600 141.600 C 235.160 141.600,234.800 141.780,234.800 142.000 M172.800 143.200 C 173.576 143.701,174.000 143.701,174.000 143.200 C 174.000 142.980,173.595 142.803,173.100 142.806 C 172.372 142.811,172.315 142.886,172.800 143.200 M174.643 143.531 C 174.528 143.716,175.036 144.155,175.771 144.505 C 176.505 144.856,177.713 145.655,178.453 146.281 C 181.216 148.617,181.396 148.721,180.831 147.661 C 180.556 147.145,179.807 146.425,179.168 146.061 C 178.528 145.698,178.004 145.265,178.003 145.100 C 178.001 144.935,177.730 144.800,177.400 144.800 C 177.070 144.800,176.800 144.609,176.800 144.376 C 176.800 144.143,176.635 144.055,176.432 144.180 C 176.230 144.305,175.791 144.134,175.458 143.801 C 175.124 143.467,174.757 143.346,174.643 143.531 M224.191 143.707 C 223.208 144.255,222.229 145.206,222.671 145.183 C 223.405 145.146,225.690 143.703,225.350 143.493 C 225.148 143.368,224.627 143.464,224.191 143.707 M242.971 144.609 C 243.395 144.929,243.840 145.094,243.959 144.974 C 244.210 144.723,243.194 144.009,242.600 144.019 C 242.380 144.022,242.547 144.288,242.971 144.609 M155.377 144.967 C 154.950 145.279,154.694 145.627,154.807 145.740 C 154.920 145.853,155.459 145.602,156.006 145.182 C 157.145 144.307,156.555 144.106,155.377 144.967 M220.323 146.300 C 219.196 147.612,219.023 148.123,219.856 147.677 C 221.113 147.004,222.241 145.600,221.524 145.600 C 221.194 145.600,220.653 145.915,220.323 146.300 M247.143 147.900 C 247.644 148.615,248.139 149.200,248.241 149.200 C 248.587 149.200,247.650 147.740,246.937 147.167 C 246.436 146.765,246.496 146.978,247.143 147.900 M152.186 148.500 L 151.552 149.800 152.367 148.800 C 153.152 147.837,153.408 147.200,153.010 147.200 C 152.906 147.200,152.535 147.785,152.186 148.500 M132.800 155.200 C 132.800 156.373,132.874 157.258,132.964 157.167 C 133.268 156.857,133.370 153.636,133.084 153.350 C 132.928 153.194,132.800 154.027,132.800 155.200 M249.693 155.600 C 249.693 156.370,249.775 156.685,249.876 156.300 C 249.976 155.915,249.976 155.285,249.876 154.900 C 249.775 154.515,249.693 154.830,249.693 155.600 M68.404 164.916 C 68.387 166.298,72.990 172.000,74.122 172.000 C 74.337 172.000,73.667 171.256,72.634 170.346 C 71.600 169.436,70.226 167.771,69.581 166.646 C 68.936 165.521,68.406 164.742,68.404 164.916 M269.757 167.000 C 270.073 167.660,271.015 168.830,271.849 169.600 L 273.366 171.000 271.983 169.396 C 271.222 168.514,270.281 167.344,269.891 166.796 L 269.182 165.800 269.757 167.000 M329.636 168.036 C 329.138 168.711,328.803 169.337,328.893 169.427 C 328.983 169.517,329.465 169.038,329.964 168.364 C 330.462 167.689,330.797 167.063,330.707 166.973 C 330.617 166.883,330.135 167.362,329.636 168.036 M127.978 169.848 C 127.220 170.645,126.960 171.078,127.400 170.810 C 128.122 170.371,129.837 168.400,129.497 168.400 C 129.420 168.400,128.737 169.052,127.978 169.848 M74.800 172.344 C 74.800 172.524,75.250 172.877,75.800 173.127 C 76.350 173.378,76.800 173.436,76.800 173.256 C 76.800 173.076,76.350 172.723,75.800 172.473 C 75.250 172.222,74.800 172.164,74.800 172.344 M91.327 174.700 C 96.127 174.764,103.867 174.763,108.527 174.699 C 113.187 174.636,109.260 174.583,99.800 174.583 C 90.340 174.583,86.527 174.636,91.327 174.700 M291.500 174.700 C 296.395 174.763,304.405 174.763,309.300 174.700 C 314.195 174.636,310.190 174.584,300.400 174.584 C 290.610 174.584,286.605 174.636,291.500 174.700 M145.700 175.487 C 146.305 175.578,147.295 175.578,147.900 175.487 C 148.505 175.395,148.010 175.320,146.800 175.320 C 145.590 175.320,145.095 175.395,145.700 175.487 M134.100 177.196 C 132.294 178.297,132.463 178.566,134.300 177.514 C 136.148 176.456,136.223 176.400,135.767 176.401 C 135.565 176.402,134.815 176.760,134.100 177.196 M265.800 177.025 C 266.460 177.396,267.316 177.976,267.702 178.314 C 268.089 178.652,268.483 178.850,268.578 178.755 C 268.805 178.529,266.429 176.915,265.400 176.596 C 264.960 176.460,265.140 176.653,265.800 177.025 M130.806 179.794 C 130.063 180.561,129.556 181.289,129.679 181.412 C 129.803 181.536,130.480 180.909,131.185 180.018 C 132.760 178.031,132.604 177.939,130.806 179.794 M270.400 180.975 C 270.400 181.413,276.918 190.415,277.102 190.232 C 277.334 189.999,276.242 188.226,275.132 187.035 C 274.729 186.603,274.400 186.116,274.400 185.953 C 274.400 185.790,274.166 185.419,273.881 185.129 C 273.596 184.838,272.777 183.745,272.062 182.700 C 270.887 180.983,270.400 180.478,270.400 180.975 M126.235 186.035 C 124.755 188.258,123.618 190.152,123.709 190.242 C 123.799 190.333,125.085 188.588,126.565 186.365 C 128.045 184.142,129.182 182.248,129.091 182.158 C 129.001 182.067,127.715 183.812,126.235 186.035 M0.093 188.400 C 0.093 189.170,0.175 189.485,0.276 189.100 C 0.376 188.715,0.376 188.085,0.276 187.700 C 0.175 187.315,0.093 187.630,0.093 188.400 M399.693 188.400 C 399.693 189.170,399.775 189.485,399.876 189.100 C 399.976 188.715,399.976 188.085,399.876 187.700 C 399.775 187.315,399.693 187.630,399.693 188.400 M122.493 191.600 C 122.216 192.043,122.167 192.400,122.383 192.400 C 122.597 192.400,122.965 192.040,123.200 191.600 C 123.435 191.160,123.485 190.800,123.310 190.800 C 123.135 190.800,122.768 191.160,122.493 191.600 M279.288 193.992 C 279.560 194.428,280.012 194.873,280.293 194.980 C 280.637 195.113,280.593 194.856,280.155 194.188 C 279.391 193.021,278.565 192.835,279.288 193.992 M120.400 194.800 C 120.125 195.315,120.115 195.600,120.372 195.600 C 120.592 195.600,120.965 195.240,121.200 194.800 C 121.475 194.285,121.485 194.000,121.228 194.000 C 121.008 194.000,120.635 194.360,120.400 194.800 M114.793 204.100 C 111.479 209.681,111.323 209.963,111.874 209.400 C 112.691 208.564,118.192 199.200,117.866 199.200 C 117.776 199.200,116.393 201.405,114.793 204.100 M283.612 200.000 C 284.340 201.426,288.825 208.522,289.300 209.000 C 289.950 209.654,288.822 207.646,286.264 203.600 C 283.813 199.721,282.698 198.208,283.612 200.000 M196.100 208.276 C 196.485 208.376,197.115 208.376,197.500 208.276 C 197.885 208.175,197.570 208.093,196.800 208.093 C 196.030 208.093,195.715 208.175,196.100 208.276 M203.300 208.276 C 203.685 208.376,204.315 208.376,204.700 208.276 C 205.085 208.175,204.770 208.093,204.000 208.093 C 203.230 208.093,202.915 208.175,203.300 208.276 M0.093 211.600 C 0.093 212.370,0.175 212.685,0.276 212.300 C 0.376 211.915,0.376 211.285,0.276 210.900 C 0.175 210.515,0.093 210.830,0.093 211.600 M399.693 211.600 C 399.693 212.370,399.775 212.685,399.876 212.300 C 399.976 211.915,399.976 211.285,399.876 210.900 C 399.775 210.515,399.693 210.830,399.693 211.600 M176.068 213.802 C 172.195 215.882,170.259 217.192,170.583 217.516 C 170.709 217.642,171.625 217.173,172.618 216.473 C 173.611 215.773,174.585 215.200,174.783 215.200 C 174.981 215.200,175.406 214.936,175.729 214.614 C 176.051 214.292,176.554 213.977,176.848 213.914 C 177.141 213.851,177.625 213.573,177.923 213.296 C 178.221 213.019,178.630 212.895,178.832 213.020 C 179.035 213.145,179.200 213.046,179.200 212.800 C 179.200 212.554,179.368 212.456,179.572 212.583 C 179.777 212.709,180.058 212.630,180.196 212.407 C 180.702 211.589,179.323 212.055,176.068 213.802 M221.110 212.757 C 222.565 213.694,222.800 213.762,222.800 213.247 C 222.800 213.052,222.485 212.803,222.100 212.692 C 221.715 212.581,221.040 212.361,220.600 212.203 C 220.160 212.044,220.389 212.294,221.110 212.757 M224.562 214.600 C 225.372 215.150,226.208 215.600,226.418 215.600 C 226.628 215.600,226.800 215.759,226.800 215.953 C 226.800 216.148,227.115 216.409,227.500 216.535 C 227.885 216.660,228.785 217.244,229.500 217.833 C 230.215 218.421,230.800 218.706,230.800 218.466 C 230.800 217.809,224.369 213.600,223.364 213.600 C 223.212 213.600,223.751 214.050,224.562 214.600 M294.018 217.234 C 294.264 217.693,294.544 217.989,294.642 217.892 C 294.922 217.612,294.354 216.400,293.943 216.400 C 293.739 216.400,293.773 216.775,294.018 217.234 M167.708 219.304 C 166.745 220.550,166.710 220.961,167.631 220.204 C 168.164 219.767,168.657 219.380,168.727 219.344 C 168.796 219.309,168.682 219.174,168.472 219.044 C 168.262 218.915,167.918 219.032,167.708 219.304 M231.200 218.925 C 231.200 218.994,231.771 219.579,232.468 220.225 L 233.736 221.400 232.841 220.100 C 232.106 219.033,231.200 218.384,231.200 218.925 M105.324 220.198 C 105.062 220.482,104.957 220.824,105.091 220.957 C 105.224 221.091,105.143 221.200,104.910 221.200 C 104.677 221.200,104.377 221.637,104.243 222.172 C 104.109 222.707,103.743 223.400,103.431 223.712 C 103.118 224.024,102.534 224.912,102.131 225.684 C 101.729 226.456,100.633 228.553,99.696 230.344 C 98.758 232.135,98.078 233.600,98.185 233.600 C 98.292 233.600,98.679 233.015,99.046 232.300 C 99.412 231.585,99.832 230.910,99.978 230.800 C 100.365 230.510,106.080 219.945,105.928 219.802 C 105.858 219.735,105.586 219.913,105.324 220.198 M295.600 220.145 C 295.600 220.426,299.755 227.802,300.025 228.000 C 300.175 228.110,300.942 229.460,301.729 231.000 C 302.516 232.540,303.170 233.662,303.180 233.493 C 303.191 233.324,302.255 231.363,301.100 229.136 C 299.945 226.909,298.665 224.437,298.255 223.643 C 297.846 222.849,297.349 222.140,297.153 222.066 C 296.956 221.992,296.897 221.767,297.021 221.566 C 297.145 221.365,297.057 221.200,296.824 221.200 C 296.591 221.200,296.400 220.930,296.400 220.600 C 296.400 220.270,296.220 220.000,296.000 220.000 C 295.780 220.000,295.600 220.065,295.600 220.145 M238.621 226.600 C 239.433 227.590,240.256 228.400,240.452 228.400 C 240.648 228.400,240.045 227.590,239.114 226.600 C 238.182 225.610,237.358 224.800,237.283 224.800 C 237.208 224.800,237.810 225.610,238.621 226.600 M159.081 228.560 C 157.889 229.859,156.669 232.000,157.121 232.000 C 157.322 232.000,158.144 231.010,158.947 229.800 C 160.491 227.475,160.546 226.963,159.081 228.560 M214.601 229.111 C 216.141 229.930,217.941 230.975,218.601 231.434 C 220.495 232.752,221.112 232.954,219.800 231.827 C 218.598 230.795,212.777 227.591,212.139 227.611 C 211.953 227.616,213.060 228.291,214.601 229.111 M184.000 229.413 C 182.570 230.178,180.860 231.266,180.200 231.831 C 178.890 232.952,179.504 232.752,181.392 231.442 C 182.047 230.987,183.667 230.031,184.992 229.317 C 186.316 228.602,187.220 228.019,187.000 228.021 C 186.780 228.022,185.430 228.649,184.000 229.413 M241.006 229.753 C 241.383 230.329,241.873 230.800,242.095 230.800 C 242.614 230.800,241.492 229.097,240.826 228.875 C 240.497 228.766,240.560 229.072,241.006 229.753 M243.099 232.900 C 243.450 233.615,243.862 234.290,244.015 234.400 C 244.549 234.785,245.963 237.903,245.716 238.150 C 245.579 238.288,245.687 238.400,245.957 238.400 C 246.227 238.400,246.363 238.537,246.259 238.704 C 246.156 238.872,246.344 239.367,246.677 239.804 C 247.261 240.571,247.272 240.564,246.995 239.600 C 246.548 238.048,243.159 231.600,242.790 231.600 C 242.609 231.600,242.748 232.185,243.099 232.900 M154.914 235.400 C 153.041 239.126,152.321 241.121,153.323 239.804 C 153.656 239.367,153.844 238.872,153.741 238.704 C 153.637 238.537,153.773 238.400,154.043 238.400 C 154.313 238.400,154.421 238.288,154.284 238.150 C 154.002 237.868,155.384 234.952,156.288 233.923 C 156.615 233.551,156.801 233.011,156.702 232.723 C 156.603 232.435,155.798 233.640,154.914 235.400 M176.400 235.000 C 175.428 235.990,174.723 236.800,174.833 236.800 C 174.943 236.800,175.828 235.990,176.800 235.000 C 177.772 234.010,178.477 233.200,178.367 233.200 C 178.257 233.200,177.372 234.010,176.400 235.000 M223.400 235.200 C 224.483 236.300,225.460 237.200,225.570 237.200 C 225.680 237.200,224.883 236.300,223.800 235.200 C 222.717 234.100,221.740 233.200,221.630 233.200 C 221.520 233.200,222.317 234.100,223.400 235.200 M172.303 240.100 C 171.416 241.455,169.528 245.262,169.673 245.404 C 169.743 245.472,170.565 244.104,171.500 242.364 C 173.141 239.308,173.520 238.241,172.303 240.100 M227.707 240.900 C 228.248 241.835,228.909 243.020,229.177 243.534 C 229.446 244.048,229.760 244.374,229.876 244.258 C 230.100 244.034,227.288 239.200,226.933 239.200 C 226.818 239.200,227.166 239.965,227.707 240.900 M93.795 242.265 C 92.129 246.021,92.132 246.254,93.808 243.067 C 94.598 241.564,95.187 240.162,95.117 239.952 C 95.048 239.743,94.453 240.784,93.795 242.265 M306.028 240.200 C 306.028 240.420,306.286 241.050,306.600 241.600 C 306.914 242.150,307.172 242.420,307.172 242.200 C 307.172 241.980,306.914 241.350,306.600 240.800 C 306.286 240.250,306.028 239.980,306.028 240.200 M307.228 243.000 C 307.228 243.220,307.486 243.850,307.800 244.400 C 308.114 244.950,308.372 245.220,308.372 245.000 C 308.372 244.780,308.114 244.150,307.800 243.600 C 307.486 243.050,307.228 242.780,307.228 243.000 M149.701 255.000 C 149.705 255.880,149.787 256.193,149.883 255.695 C 149.979 255.198,149.975 254.478,149.875 254.095 C 149.775 253.713,149.696 254.120,149.701 255.000 M250.114 255.800 C 250.117 256.900,250.195 257.303,250.287 256.695 C 250.379 256.086,250.377 255.186,250.282 254.695 C 250.187 254.203,250.111 254.700,250.114 255.800 M250.109 260.800 C 250.109 261.790,250.187 262.195,250.282 261.700 C 250.378 261.205,250.378 260.395,250.282 259.900 C 250.187 259.405,250.109 259.810,250.109 260.800 M86.350 260.533 C 86.323 260.680,86.275 260.935,86.244 261.100 C 86.213 261.265,86.053 261.613,85.887 261.872 C 85.722 262.132,85.751 262.446,85.951 262.570 C 86.347 262.814,86.978 260.845,86.619 260.486 C 86.499 260.365,86.377 260.387,86.350 260.533 M149.693 262.000 C 149.693 262.770,149.775 263.085,149.876 262.700 C 149.976 262.315,149.976 261.685,149.876 261.300 C 149.775 260.915,149.693 261.230,149.693 262.000 M314.800 266.200 C 314.800 266.530,314.980 266.800,315.200 266.800 C 315.420 266.800,315.600 266.530,315.600 266.200 C 315.600 265.870,315.420 265.600,315.200 265.600 C 314.980 265.600,314.800 265.870,314.800 266.200 M315.600 271.176 C 315.600 271.629,315.780 272.000,316.000 272.000 C 316.220 272.000,316.400 271.741,316.400 271.424 C 316.400 271.107,316.220 270.736,316.000 270.600 C 315.780 270.464,315.600 270.723,315.600 271.176 M169.605 271.344 C 169.590 272.469,174.626 280.307,175.075 279.858 C 175.193 279.740,174.659 278.869,173.889 277.922 C 173.118 276.975,171.840 275.030,171.048 273.600 C 170.257 272.170,169.607 271.155,169.605 271.344 M228.806 273.871 C 228.272 274.877,227.225 276.500,226.479 277.477 C 225.732 278.455,225.213 279.346,225.325 279.458 C 225.437 279.570,226.238 278.613,227.106 277.331 C 228.852 274.753,230.136 272.402,229.917 272.184 C 229.840 272.106,229.339 272.866,228.806 273.871 M13.619 274.200 C 13.609 274.794,14.323 275.810,14.574 275.559 C 14.694 275.440,14.529 274.995,14.209 274.571 C 13.888 274.147,13.622 273.980,13.619 274.200 M316.006 275.300 C 316.003 276.125,316.180 276.800,316.400 276.800 C 316.909 276.800,316.909 275.188,316.400 274.400 C 316.112 273.954,316.011 274.184,316.006 275.300 M83.430 275.319 C 83.251 275.934,83.216 276.549,83.352 276.685 C 83.800 277.133,84.063 276.494,83.908 275.337 L 83.755 274.200 83.430 275.319 M16.014 280.300 C 16.022 280.465,16.281 281.050,16.590 281.600 C 17.137 282.573,17.150 282.576,17.091 281.700 C 17.057 281.205,16.877 280.800,16.691 280.800 C 16.505 280.800,16.464 280.620,16.600 280.400 C 16.736 280.180,16.657 280.000,16.424 280.000 C 16.191 280.000,16.006 280.135,16.014 280.300 M154.400 280.216 C 154.400 281.442,158.431 287.567,160.883 290.068 C 162.047 291.255,162.625 291.770,162.167 291.213 C 160.231 288.859,157.600 285.162,157.600 284.796 C 157.600 284.578,157.440 284.400,157.243 284.400 C 157.047 284.400,156.774 283.950,156.636 283.400 C 156.498 282.850,156.198 282.400,155.969 282.400 C 155.740 282.400,155.664 282.220,155.800 282.000 C 155.936 281.780,155.846 281.600,155.600 281.600 C 155.354 281.600,155.264 281.420,155.400 281.200 C 155.536 280.980,155.446 280.800,155.200 280.800 C 154.954 280.800,154.864 280.620,155.000 280.400 C 155.136 280.180,155.057 280.000,154.824 280.000 C 154.591 280.000,154.400 280.097,154.400 280.216 M245.000 280.400 C 245.136 280.620,245.046 280.800,244.800 280.800 C 244.554 280.800,244.464 280.980,244.600 281.200 C 244.736 281.420,244.671 281.600,244.455 281.600 C 244.239 281.600,243.854 282.230,243.600 283.000 C 243.346 283.770,242.972 284.400,242.769 284.400 C 242.566 284.400,242.400 284.670,242.400 285.000 C 242.400 285.330,242.220 285.600,242.000 285.600 C 241.780 285.600,241.600 285.855,241.600 286.167 C 241.600 286.478,241.458 286.793,241.286 286.867 C 240.634 287.143,239.129 289.602,239.760 289.360 C 241.115 288.840,246.230 280.000,245.176 280.000 C 244.943 280.000,244.864 280.180,245.000 280.400 M383.400 280.400 C 383.536 280.620,383.495 280.800,383.309 280.800 C 383.123 280.800,382.943 281.205,382.909 281.700 C 382.850 282.576,382.863 282.573,383.410 281.600 C 384.093 280.385,384.133 280.000,383.576 280.000 C 383.343 280.000,383.264 280.180,383.400 280.400 M223.178 281.900 L 221.800 283.400 223.300 282.022 C 224.696 280.738,224.984 280.400,224.678 280.400 C 224.612 280.400,223.937 281.075,223.178 281.900 M17.200 282.989 C 17.200 283.525,19.008 286.800,19.303 286.800 C 19.492 286.800,19.558 286.944,19.450 287.119 C 19.212 287.505,19.870 288.663,20.162 288.371 C 20.446 288.087,17.955 282.800,17.537 282.800 C 17.352 282.800,17.200 282.885,17.200 282.989 M381.280 284.611 C 380.304 286.619,380.258 286.800,380.720 286.800 C 380.999 286.800,382.800 283.500,382.800 282.989 C 382.800 282.258,382.017 283.094,381.280 284.611 M179.469 284.282 C 180.885 285.530,184.569 287.822,185.800 288.220 C 186.240 288.362,185.618 287.896,184.417 287.184 C 183.216 286.471,181.326 285.275,180.217 284.526 C 178.541 283.394,178.415 283.353,179.469 284.282 M83.240 295.500 C 83.262 301.825,83.424 307.450,83.600 308.000 C 83.776 308.551,83.938 303.389,83.960 296.500 C 83.986 288.407,83.859 284.000,83.600 284.000 C 83.342 284.000,83.214 288.073,83.240 295.500 M218.389 285.495 C 217.845 285.877,216.320 286.792,215.000 287.528 C 213.680 288.264,212.960 288.751,213.400 288.609 C 214.582 288.230,219.126 285.643,219.406 285.190 C 219.750 284.633,219.515 284.703,218.389 285.495 M237.429 291.562 L 236.258 293.000 237.609 291.713 C 238.351 291.005,238.878 290.358,238.779 290.275 C 238.681 290.192,238.073 290.771,237.429 291.562 M376.200 294.800 C 375.859 295.460,375.669 296.000,375.779 296.000 C 375.889 296.000,376.259 295.460,376.600 294.800 C 376.941 294.140,377.131 293.600,377.021 293.600 C 376.911 293.600,376.541 294.140,376.200 294.800 M232.975 296.100 L 231.800 297.400 233.100 296.225 C 233.815 295.579,234.400 294.994,234.400 294.925 C 234.400 294.616,234.070 294.888,232.975 296.100 M170.384 299.155 C 172.103 300.740,172.808 301.134,172.793 300.500 C 172.789 300.335,171.844 299.595,170.693 298.855 L 168.600 297.510 170.384 299.155 M228.000 299.726 C 226.350 300.878,224.415 302.063,223.700 302.359 C 222.985 302.655,222.400 303.066,222.400 303.272 C 222.400 303.478,222.220 303.536,222.000 303.400 C 221.780 303.264,221.600 303.354,221.600 303.600 C 221.600 303.846,221.420 303.936,221.200 303.800 C 220.980 303.664,220.800 303.754,220.800 304.000 C 220.800 304.246,220.632 304.344,220.428 304.217 C 220.223 304.091,219.942 304.170,219.804 304.393 C 219.028 305.649,225.476 302.490,228.100 300.330 C 228.815 299.741,229.850 298.892,230.400 298.443 C 232.184 296.987,231.071 297.582,228.000 299.726 M316.006 304.276 C 316.010 307.474,316.138 308.806,316.400 308.400 C 316.914 307.604,316.914 300.118,316.400 299.800 C 316.142 299.640,316.002 301.228,316.006 304.276 M26.401 300.126 C 26.399 300.915,33.175 311.758,33.479 311.454 C 33.585 311.348,32.931 310.170,32.025 308.836 C 31.119 307.502,29.483 304.924,28.390 303.105 C 27.296 301.287,26.401 299.947,26.401 300.126 M372.299 301.962 C 371.706 303.017,370.127 305.547,368.789 307.585 C 367.451 309.622,366.434 311.367,366.529 311.462 C 366.710 311.643,369.793 306.962,372.232 302.800 C 373.025 301.447,373.607 300.274,373.525 300.192 C 373.444 300.111,372.892 300.907,372.299 301.962 M173.200 301.122 C 173.200 301.465,179.149 304.800,179.761 304.800 C 179.892 304.800,180.000 304.609,180.000 304.376 C 180.000 304.143,179.820 304.064,179.600 304.200 C 179.380 304.336,179.200 304.246,179.200 304.000 C 179.200 303.754,179.020 303.664,178.800 303.800 C 178.580 303.936,178.400 303.846,178.400 303.600 C 178.400 303.354,178.220 303.264,178.000 303.400 C 177.780 303.536,177.600 303.446,177.600 303.200 C 177.600 302.954,177.420 302.864,177.200 303.000 C 176.980 303.136,176.800 303.090,176.800 302.898 C 176.800 302.611,175.651 301.908,173.500 300.877 C 173.335 300.798,173.200 300.908,173.200 301.122 M196.505 308.687 C 197.114 308.779,198.014 308.777,198.505 308.682 C 198.997 308.587,198.500 308.511,197.400 308.514 C 196.300 308.517,195.897 308.595,196.505 308.687 M201.305 308.687 C 201.914 308.779,202.814 308.777,203.305 308.682 C 203.797 308.587,203.300 308.511,202.200 308.514 C 201.100 308.517,200.697 308.595,201.305 308.687 M35.037 314.200 C 35.397 314.750,35.855 315.200,36.055 315.200 C 36.255 315.200,36.124 314.750,35.763 314.200 C 35.403 313.650,34.945 313.200,34.745 313.200 C 34.545 313.200,34.676 313.650,35.037 314.200 M364.281 314.213 C 363.886 314.756,363.730 315.200,363.935 315.200 C 364.140 315.200,364.603 314.750,364.963 314.200 C 365.811 312.907,365.224 312.918,364.281 314.213 M85.228 315.000 C 85.228 315.220,85.486 315.850,85.800 316.400 C 86.114 316.950,86.372 317.220,86.372 317.000 C 86.372 316.780,86.114 316.150,85.800 315.600 C 85.486 315.050,85.228 314.780,85.228 315.000 M313.693 316.327 C 313.201 317.137,312.488 318.233,312.109 318.762 C 311.429 319.712,311.432 319.718,312.310 319.248 C 312.799 318.986,313.200 318.508,313.200 318.186 C 313.200 317.864,313.341 317.600,313.512 317.600 C 313.811 317.600,314.893 315.160,314.687 314.953 C 314.632 314.898,314.184 315.517,313.693 316.327 M42.383 323.951 C 43.966 325.958,45.348 327.600,45.454 327.600 C 45.917 327.600,40.555 320.696,39.902 320.451 C 39.683 320.369,40.800 321.944,42.383 323.951 M309.762 321.262 L 309.000 322.124 310.100 321.416 C 311.234 320.686,311.449 320.400,310.862 320.400 C 310.676 320.400,310.181 320.788,309.762 321.262 M358.185 322.486 C 356.342 324.910,355.890 325.600,356.144 325.600 C 356.244 325.600,357.246 324.430,358.370 323.000 C 359.494 321.570,360.269 320.400,360.092 320.400 C 359.915 320.400,359.057 321.338,358.185 322.486 M90.046 321.543 C 91.275 322.501,93.625 323.708,93.841 323.492 C 93.933 323.400,93.285 322.999,92.402 322.601 C 91.518 322.202,90.594 321.634,90.349 321.338 C 90.103 321.042,89.720 320.800,89.497 320.800 C 89.274 320.800,89.521 321.135,90.046 321.543 M307.200 322.800 C 306.430 323.222,305.944 323.574,306.120 323.583 C 306.544 323.605,308.800 322.432,308.800 322.190 C 308.800 321.928,308.777 321.937,307.200 322.800 M46.007 328.244 C 46.010 328.440,47.105 329.770,48.440 331.200 C 51.035 333.980,50.523 333.024,47.700 329.818 C 46.765 328.756,46.003 328.048,46.007 328.244 M352.819 329.305 L 351.895 330.600 353.026 329.512 C 353.649 328.914,354.064 328.331,353.950 328.217 C 353.836 328.103,353.327 328.593,352.819 329.305 M350.229 332.319 L 349.087 333.800 350.423 332.513 C 351.158 331.805,351.672 331.138,351.565 331.031 C 351.458 330.925,350.857 331.504,350.229 332.319 M54.019 337.500 C 55.644 339.205,57.053 340.690,57.151 340.800 C 57.248 340.910,57.178 340.730,56.995 340.400 C 56.350 339.238,51.912 334.400,51.491 334.400 C 51.257 334.400,52.394 335.795,54.019 337.500 M345.779 337.100 L 343.460 339.800 346.130 337.212 C 347.598 335.788,348.800 334.573,348.800 334.512 C 348.800 333.918,347.708 334.854,345.779 337.100 M62.445 345.868 C 64.179 347.555,65.690 348.843,65.804 348.730 C 65.999 348.534,59.885 342.800,59.482 342.800 C 59.377 342.800,60.711 344.181,62.445 345.868 M336.800 345.978 C 335.370 347.271,334.300 348.430,334.422 348.554 C 334.545 348.677,335.800 347.613,337.211 346.189 C 340.399 342.972,340.223 342.882,336.800 345.978 M67.487 350.423 C 68.195 351.158,68.862 351.672,68.969 351.565 C 69.075 351.458,68.496 350.857,67.681 350.229 L 66.200 349.087 67.487 350.423 M332.015 350.416 C 331.253 351.067,330.815 351.600,331.040 351.600 C 331.266 351.600,331.968 351.060,332.600 350.400 C 334.055 348.881,333.803 348.888,332.015 350.416 M70.488 353.019 C 71.086 353.645,71.682 354.052,71.811 353.922 C 71.940 353.793,71.451 353.281,70.723 352.784 L 69.400 351.880 70.488 353.019 M329.000 353.012 C 328.340 353.553,327.994 353.997,328.230 353.998 C 328.467 353.999,329.083 353.550,329.600 353.000 C 330.785 351.738,330.548 351.743,329.000 353.012 M74.400 356.140 C 74.400 356.243,75.570 357.246,77.000 358.370 C 78.430 359.494,79.600 360.252,79.600 360.055 C 79.600 359.858,78.655 358.988,77.500 358.123 C 75.091 356.318,74.400 355.876,74.400 356.140 M322.970 357.835 C 321.666 358.844,320.533 359.854,320.452 360.079 C 320.370 360.305,321.495 359.553,322.952 358.408 C 325.318 356.548,325.892 356.000,325.470 356.000 C 325.398 356.000,324.273 356.826,322.970 357.835 M84.400 363.747 C 84.400 363.865,85.210 364.519,86.200 365.200 C 87.190 365.881,87.998 366.295,87.995 366.119 C 87.992 365.944,87.317 365.350,86.495 364.800 C 84.748 363.631,84.400 363.457,84.400 363.747 M314.043 364.444 C 312.796 365.456,313.113 365.771,314.400 364.800 C 314.943 364.390,315.301 363.968,315.194 363.862 C 315.087 363.756,314.570 364.018,314.043 364.444 M88.400 366.561 C 88.400 367.002,99.558 373.776,99.832 373.501 C 99.927 373.407,99.118 372.847,98.036 372.258 C 96.953 371.669,94.427 370.110,92.422 368.793 C 88.922 366.495,88.400 366.205,88.400 366.561 M309.200 367.710 C 308.210 368.410,305.697 370.022,303.615 371.292 C 301.534 372.561,300.024 373.600,300.261 373.600 C 300.693 373.600,310.669 367.477,311.380 366.775 C 312.232 365.934,310.904 366.503,309.200 367.710 M104.000 375.784 C 104.000 375.894,104.720 376.351,105.600 376.800 C 106.480 377.249,107.200 377.526,107.200 377.416 C 107.200 377.306,106.480 376.849,105.600 376.400 C 104.720 375.951,104.000 375.674,104.000 375.784 M111.366 379.824 C 112.633 381.090,119.200 383.920,119.200 383.200 C 119.200 382.980,119.065 382.843,118.900 382.896 C 118.735 382.949,116.951 382.139,114.936 381.096 C 111.014 379.066,110.384 378.841,111.366 379.824 M284.600 381.268 C 282.702 382.256,282.601 382.335,282.885 382.618 C 283.168 382.901,286.800 381.141,286.800 380.720 C 286.800 380.241,286.364 380.350,284.600 381.268 M280.800 383.309 C 280.800 383.495,280.620 383.536,280.400 383.400 C 280.180 383.264,280.000 383.343,280.000 383.576 C 280.000 384.133,280.385 384.093,281.600 383.410 C 282.573 382.863,282.576 382.850,281.700 382.909 C 281.205 382.943,280.800 383.123,280.800 383.309 M187.700 399.876 C 188.085 399.976,188.715 399.976,189.100 399.876 C 189.485 399.775,189.170 399.693,188.400 399.693 C 187.630 399.693,187.315 399.775,187.700 399.876 M210.900 399.876 C 211.285 399.976,211.915 399.976,212.300 399.876 C 212.685 399.775,212.370 399.693,211.600 399.693 C 210.830 399.693,210.515 399.775,210.900 399.876 " stroke="none" fill="#cbcbcb" fill-rule="evenodd"></path><path id="path1" d="M189.400 0.385 C 181.025 0.861,165.049 2.752,164.018 3.389 C 163.849 3.493,163.011 3.686,162.155 3.818 C 160.165 4.124,159.624 4.228,158.400 4.538 C 157.850 4.678,156.950 4.875,156.400 4.977 C 155.850 5.079,152.970 5.802,150.000 6.585 C 78.598 25.393,24.725 79.622,6.333 151.200 C 4.290 159.150,4.223 159.443,3.813 162.155 C 3.684 163.011,3.493 163.849,3.389 164.018 C 3.052 164.562,1.634 174.812,0.956 181.600 C 0.159 189.581,0.043 209.009,0.748 216.400 C 1.405 223.284,2.746 233.484,3.236 235.320 C 3.459 236.157,3.720 237.417,3.815 238.120 C 4.253 241.354,7.757 254.703,10.013 261.727 C 29.247 321.635,78.031 370.702,137.200 389.653 C 139.510 390.393,141.490 391.089,141.600 391.199 C 141.710 391.310,142.070 391.422,142.400 391.450 C 142.730 391.477,145.755 392.256,149.122 393.180 C 152.489 394.105,155.729 394.944,156.322 395.045 C 156.915 395.146,157.940 395.398,158.600 395.604 C 175.991 401.047,218.808 400.970,242.200 395.452 C 298.768 382.110,342.791 350.289,372.008 301.625 C 381.752 285.394,392.607 258.122,395.024 243.800 C 395.135 243.140,395.390 242.060,395.591 241.400 C 395.792 240.740,396.042 239.660,396.147 239.000 C 396.252 238.340,396.704 235.640,397.152 233.000 C 401.031 210.125,400.268 173.450,395.603 158.600 C 395.396 157.940,395.134 156.860,395.022 156.200 C 394.708 154.348,391.443 142.733,389.793 137.600 C 370.484 77.518,321.121 28.665,260.400 9.545 C 258.750 9.025,257.340 8.464,257.266 8.298 C 257.192 8.131,256.993 8.081,256.823 8.186 C 256.653 8.291,255.903 8.195,255.157 7.973 C 253.736 7.551,241.585 4.449,240.200 4.155 C 239.760 4.062,238.770 3.887,238.000 3.766 C 237.230 3.646,235.970 3.391,235.200 3.199 C 226.901 1.134,202.546 -0.362,189.400 0.385 M216.800 75.371 C 236.725 76.553,251.948 78.861,266.200 82.860 C 271.737 84.413,279.200 87.176,279.200 87.671 C 279.200 87.878,279.369 87.943,279.576 87.815 C 280.605 87.179,294.830 94.952,303.200 100.724 C 321.881 113.607,332.644 126.314,332.997 135.904 C 333.039 137.061,333.192 138.126,333.337 138.270 C 333.734 138.667,333.653 159.920,333.254 160.167 C 333.063 160.285,332.994 160.835,333.100 161.390 C 333.211 161.968,333.108 162.400,332.859 162.400 C 332.620 162.400,332.526 162.663,332.649 162.984 C 333.821 166.037,325.633 174.148,320.955 174.568 C 320.196 174.636,319.461 174.806,319.321 174.946 C 318.768 175.498,281.893 175.215,279.740 174.642 C 273.300 172.927,267.688 167.054,267.304 161.625 C 266.508 150.393,265.500 145.466,262.836 139.780 C 256.548 126.362,241.234 115.113,224.400 111.546 C 222.310 111.104,220.330 110.638,220.000 110.511 C 219.670 110.385,218.998 110.320,218.507 110.368 C 218.015 110.416,217.409 110.329,217.160 110.175 C 216.910 110.021,215.962 109.854,215.053 109.804 C 214.144 109.754,211.420 109.570,209.000 109.395 C 200.945 108.812,191.613 109.050,184.600 110.015 C 183.060 110.227,181.587 110.320,181.326 110.223 C 181.065 110.125,180.795 110.170,180.726 110.322 C 180.657 110.475,178.993 110.926,177.028 111.324 C 151.805 116.441,133.600 135.442,133.600 156.652 C 133.600 158.300,133.428 159.600,133.210 159.600 C 132.990 159.600,132.925 160.123,133.060 160.800 C 133.210 161.548,133.135 162.000,132.863 162.000 C 132.622 162.000,132.528 162.267,132.653 162.594 C 132.974 163.430,130.773 167.886,129.080 169.828 C 127.299 171.871,123.728 173.796,120.204 174.614 C 116.706 175.425,79.580 175.342,79.307 174.522 C 79.220 174.260,78.925 174.130,78.653 174.235 C 75.387 175.488,67.248 166.615,67.060 161.597 C 67.027 160.721,66.865 160.004,66.700 160.002 C 66.278 159.999,66.324 136.894,66.746 136.633 C 66.937 136.515,67.011 135.993,66.912 135.472 C 66.653 134.118,68.976 127.475,70.706 124.622 C 75.912 116.034,95.269 100.264,110.469 92.225 C 118.343 88.060,133.986 82.002,135.431 82.557 C 135.744 82.677,136.000 82.622,136.000 82.435 C 136.000 81.966,145.066 79.863,145.827 80.155 C 146.165 80.285,146.350 80.243,146.238 80.062 C 145.608 79.043,169.081 76.111,183.800 75.370 C 186.660 75.226,189.030 75.084,189.067 75.054 C 189.287 74.875,212.999 75.145,216.800 75.371 M173.991 142.741 C 182.242 145.947,183.543 148.763,183.342 162.977 C 183.223 171.390,183.296 173.087,183.810 173.871 L 184.418 174.800 199.909 174.794 C 208.952 174.790,215.650 174.630,216.000 174.409 C 216.502 174.092,216.633 172.187,216.800 162.715 C 216.990 151.979,217.046 151.306,217.907 149.560 C 223.195 138.827,243.987 139.031,249.233 149.868 C 249.698 150.830,249.977 151.883,249.852 152.208 C 249.727 152.534,249.799 152.800,250.013 152.800 C 250.253 152.800,250.400 156.892,250.400 163.576 C 250.400 169.503,250.549 174.445,250.731 174.558 C 250.914 174.670,253.354 174.790,256.153 174.824 C 261.412 174.888,262.403 175.070,265.814 176.602 C 269.716 178.355,270.547 179.385,282.267 197.000 C 296.620 218.570,307.490 239.294,312.795 255.200 C 314.524 260.385,316.195 267.714,315.852 268.608 C 315.727 268.934,315.818 269.200,316.055 269.200 C 316.314 269.200,316.424 269.832,316.331 270.800 C 316.248 271.680,316.330 272.400,316.516 272.400 C 316.701 272.400,316.727 274.715,316.573 277.543 C 316.373 281.216,316.423 282.767,316.747 282.967 C 317.321 283.322,317.382 295.440,316.811 295.793 C 316.569 295.943,316.517 298.420,316.672 302.372 C 317.202 315.838,313.083 322.734,303.299 324.758 C 300.457 325.345,99.959 325.342,96.856 324.754 C 90.291 323.510,84.065 317.408,83.861 312.019 C 83.827 311.131,83.652 310.404,83.471 310.402 C 83.290 310.401,83.184 303.919,83.235 295.998 C 83.287 288.076,83.210 281.476,83.064 281.331 C 82.664 280.931,82.748 278.879,83.176 278.615 C 83.390 278.483,83.451 277.178,83.318 275.591 C 83.180 273.942,83.238 272.800,83.462 272.800 C 83.669 272.800,83.766 272.170,83.676 271.400 C 83.578 270.565,83.686 270.000,83.944 270.000 C 84.181 270.000,84.274 269.738,84.151 269.418 C 82.345 264.709,97.528 231.507,112.878 206.600 C 132.129 175.363,132.156 175.335,143.800 174.944 C 149.921 174.738,149.970 174.709,149.965 171.200 C 149.963 169.770,149.943 165.630,149.921 162.000 C 149.857 151.370,150.403 149.174,153.914 145.938 C 158.275 141.918,167.921 140.382,173.991 142.741 M194.991 208.741 C 194.914 208.819,193.354 209.135,191.525 209.443 C 171.811 212.762,154.025 229.890,151.385 248.100 C 151.233 249.145,150.975 250.000,150.810 250.000 C 150.646 250.000,150.596 250.447,150.701 250.993 C 150.805 251.540,150.771 252.298,150.626 252.677 C 150.317 253.481,150.233 263.112,150.527 264.000 C 150.636 264.330,150.931 265.950,151.182 267.600 C 154.139 286.982,171.243 303.823,191.600 307.394 C 195.163 308.019,204.093 308.279,205.307 307.792 C 205.695 307.637,206.460 307.595,207.007 307.699 C 207.553 307.804,208.000 307.758,208.000 307.599 C 208.000 307.439,208.830 307.195,209.845 307.056 C 227.152 304.684,244.304 288.011,248.376 269.600 C 248.643 268.390,248.957 267.130,249.074 266.800 C 250.251 263.460,249.516 250.537,247.813 244.626 C 247.500 243.540,247.335 242.505,247.446 242.326 C 247.557 242.147,247.457 242.000,247.224 242.000 C 246.991 242.000,246.800 241.770,246.800 241.489 C 246.800 241.209,245.821 238.989,244.625 236.558 C 237.560 222.196,224.464 212.215,209.000 209.406 C 206.159 208.890,195.354 208.377,194.991 208.741 M203.759 225.133 C 203.872 225.317,204.513 225.386,205.182 225.288 C 205.899 225.183,206.400 225.287,206.400 225.542 C 206.400 225.780,206.664 225.874,206.986 225.750 C 207.693 225.479,212.235 226.930,215.000 228.309 C 224.298 232.950,232.461 243.994,233.007 252.671 C 233.069 253.651,233.228 254.561,233.360 254.693 C 233.723 255.056,233.648 261.600,233.280 261.600 C 233.104 261.600,233.034 262.230,233.124 263.000 C 233.229 263.894,233.119 264.400,232.820 264.400 C 232.563 264.400,232.469 264.587,232.610 264.817 C 233.488 266.237,229.231 275.552,225.808 279.702 C 221.132 285.370,209.573 292.196,206.589 291.051 C 206.265 290.927,206.000 291.013,206.000 291.243 C 206.000 291.476,205.389 291.609,204.621 291.543 C 203.863 291.477,203.113 291.553,202.955 291.712 C 202.529 292.138,197.286 292.062,197.016 291.626 C 196.889 291.421,196.159 291.354,195.393 291.479 C 194.510 291.622,194.000 291.544,194.000 291.265 C 194.000 291.023,193.735 290.927,193.411 291.051 C 191.766 291.682,183.540 287.982,179.554 284.816 C 173.375 279.909,166.136 268.150,167.349 264.989 C 167.473 264.665,167.395 264.400,167.175 264.400 C 166.955 264.400,166.772 263.815,166.768 263.100 C 166.763 262.385,166.663 260.576,166.545 259.080 C 166.427 257.584,166.461 256.054,166.620 255.680 C 166.780 255.306,166.872 254.415,166.825 253.700 C 166.777 252.985,166.927 252.400,167.157 252.400 C 167.387 252.400,167.479 252.151,167.363 251.847 C 166.404 249.349,171.576 239.530,176.353 234.778 C 181.756 229.403,192.031 224.383,195.677 225.336 C 196.075 225.440,196.400 225.362,196.400 225.163 C 196.400 224.708,203.478 224.679,203.759 225.133 " stroke="none" fill="#040404" fill-rule="evenodd"></path><path id="path2" d="M192.705 0.283 C 193.202 0.379,193.922 0.375,194.305 0.275 C 194.687 0.175,194.280 0.096,193.400 0.101 C 192.520 0.105,192.207 0.187,192.705 0.283 M205.905 0.283 C 206.402 0.379,207.122 0.375,207.505 0.275 C 207.887 0.175,207.480 0.096,206.600 0.101 C 205.720 0.105,205.407 0.187,205.905 0.283 M246.000 5.600 C 246.550 5.776,247.360 5.920,247.800 5.920 C 248.433 5.920,248.392 5.854,247.600 5.600 C 247.050 5.424,246.240 5.280,245.800 5.280 C 245.167 5.280,245.208 5.346,246.000 5.600 M149.401 6.307 C 148.082 6.652,147.182 6.990,147.401 7.058 C 147.621 7.125,149.060 6.841,150.600 6.426 C 152.140 6.012,153.040 5.674,152.600 5.676 C 152.160 5.678,150.721 5.962,149.401 6.307 M249.000 6.196 C 249.768 6.582,254.990 7.944,255.137 7.796 C 255.219 7.714,254.322 7.374,253.143 7.041 C 250.781 6.372,248.373 5.881,249.000 6.196 M143.000 8.214 C 141.995 8.698,141.963 8.753,142.800 8.551 C 143.350 8.419,143.971 8.150,144.180 7.955 C 144.698 7.471,144.414 7.533,143.000 8.214 M334.600 52.400 C 335.459 53.280,336.252 54.000,336.362 54.000 C 336.472 54.000,335.859 53.280,335.000 52.400 C 334.141 51.520,333.348 50.800,333.238 50.800 C 333.128 50.800,333.741 51.520,334.600 52.400 M64.175 53.300 L 63.000 54.600 64.300 53.425 C 65.512 52.330,65.784 52.000,65.475 52.000 C 65.406 52.000,64.821 52.585,64.175 53.300 M52.975 64.500 L 51.800 65.800 53.100 64.625 C 54.312 63.530,54.584 63.200,54.275 63.200 C 54.206 63.200,53.621 63.785,52.975 64.500 M347.400 65.200 C 348.259 66.080,349.052 66.800,349.162 66.800 C 349.272 66.800,348.659 66.080,347.800 65.200 C 346.941 64.320,346.148 63.600,346.038 63.600 C 345.928 63.600,346.541 64.320,347.400 65.200 M349.600 67.725 C 349.600 67.794,350.185 68.379,350.900 69.025 L 352.200 70.200 351.025 68.900 C 349.930 67.688,349.600 67.416,349.600 67.725 M189.905 75.083 C 190.402 75.179,191.122 75.175,191.505 75.075 C 191.887 74.975,191.480 74.896,190.600 74.901 C 189.720 74.905,189.407 74.987,189.905 75.083 M207.900 75.082 C 208.395 75.178,209.205 75.178,209.700 75.082 C 210.195 74.987,209.790 74.909,208.800 74.909 C 207.810 74.909,207.405 74.987,207.900 75.082 M117.900 88.629 C 116.405 89.440,116.496 89.778,118.000 89.000 C 118.660 88.659,119.200 88.294,119.200 88.190 C 119.200 87.932,119.157 87.947,117.900 88.629 M282.507 89.040 C 282.908 89.441,290.000 92.793,290.000 92.581 C 290.000 92.382,284.812 89.737,283.269 89.150 C 282.690 88.930,282.347 88.881,282.507 89.040 M85.170 109.500 L 84.200 110.600 85.400 109.600 C 86.060 109.050,86.675 108.555,86.767 108.500 C 86.858 108.445,86.755 108.400,86.536 108.400 C 86.318 108.400,85.703 108.895,85.170 109.500 M190.800 109.200 C 189.429 109.489,189.425 109.495,190.600 109.524 C 191.260 109.541,192.520 109.405,193.400 109.223 L 195.000 108.892 193.600 108.899 C 192.830 108.902,191.570 109.038,190.800 109.200 M206.000 109.220 C 206.990 109.397,208.430 109.532,209.200 109.520 C 210.497 109.501,210.467 109.476,208.800 109.180 C 207.810 109.003,206.370 108.868,205.600 108.880 C 204.303 108.899,204.333 108.924,206.000 109.220 M185.800 109.600 L 185.000 109.944 185.800 109.966 C 186.240 109.978,186.870 109.813,187.200 109.600 C 187.995 109.086,186.996 109.086,185.800 109.600 M213.200 109.594 C 213.530 109.811,214.235 109.991,214.767 109.994 C 216.051 110.002,215.725 109.775,214.000 109.458 C 213.015 109.277,212.778 109.318,213.200 109.594 M81.178 113.100 L 79.800 114.600 81.300 113.222 C 82.696 111.938,82.984 111.600,82.678 111.600 C 82.612 111.600,81.937 112.275,81.178 113.100 M321.000 115.600 C 322.306 116.920,323.465 118.000,323.575 118.000 C 323.685 118.000,322.706 116.920,321.400 115.600 C 320.094 114.280,318.935 113.200,318.825 113.200 C 318.715 113.200,319.694 114.280,321.000 115.600 M324.400 118.925 C 324.400 118.994,324.985 119.579,325.700 120.225 L 327.000 121.400 325.825 120.100 C 324.730 118.888,324.400 118.616,324.400 118.925 M71.753 122.900 C 70.376 125.236,70.286 125.435,70.987 124.600 C 71.800 123.632,72.500 122.400,72.238 122.400 C 72.133 122.400,71.915 122.625,71.753 122.900 M146.786 126.700 L 144.600 129.000 146.900 126.814 C 148.165 125.611,149.200 124.576,149.200 124.514 C 149.200 124.217,148.818 124.563,146.786 126.700 M254.000 127.400 C 254.746 128.170,255.447 128.800,255.557 128.800 C 255.667 128.800,255.146 128.170,254.400 127.400 C 253.654 126.630,252.953 126.000,252.843 126.000 C 252.733 126.000,253.254 126.630,254.000 127.400 M66.667 136.667 C 66.520 136.813,66.411 137.308,66.425 137.767 C 66.449 138.533,66.482 138.523,66.834 137.642 C 67.226 136.663,67.144 136.189,66.667 136.667 M333.000 149.200 C 333.000 155.318,333.135 160.240,333.300 160.138 C 333.465 160.036,333.600 155.114,333.600 149.200 C 333.600 143.286,333.465 138.364,333.300 138.262 C 333.135 138.160,333.000 143.082,333.000 149.200 M8.067 143.180 C 7.833 143.851,7.727 144.400,7.831 144.400 C 8.101 144.400,8.856 142.322,8.657 142.124 C 8.567 142.033,8.301 142.508,8.067 143.180 M391.413 142.644 C 391.950 144.855,392.778 147.027,392.540 145.600 C 392.411 144.830,392.059 143.660,391.757 143.000 C 391.455 142.340,391.301 142.180,391.413 142.644 M6.071 150.498 C 5.592 152.408,5.216 154.203,5.236 154.486 C 5.256 154.768,5.701 153.380,6.226 151.400 C 6.750 149.420,7.126 147.626,7.061 147.413 C 6.995 147.200,6.550 148.588,6.071 150.498 M393.050 148.400 C 393.190 149.170,393.461 150.160,393.654 150.600 C 393.894 151.149,393.924 150.961,393.750 150.000 C 393.610 149.230,393.339 148.240,393.146 147.800 C 392.906 147.251,392.876 147.439,393.050 148.400 M150.222 152.222 C 150.072 153.025,150.028 153.762,150.126 153.860 C 150.224 153.957,150.427 153.381,150.578 152.578 C 150.728 151.775,150.772 151.038,150.674 150.940 C 150.576 150.843,150.373 151.419,150.222 152.222 M266.412 152.400 C 266.412 152.730,266.587 153.270,266.800 153.600 C 267.145 154.133,267.188 154.133,267.188 153.600 C 267.188 153.270,267.013 152.730,266.800 152.400 C 266.455 151.867,266.412 151.867,266.412 152.400 M249.902 159.900 C 250.092 173.039,250.233 174.267,250.317 163.500 C 250.363 157.615,250.265 152.800,250.100 152.800 C 249.935 152.799,249.846 155.994,249.902 159.900 M183.324 156.200 C 183.326 157.520,183.401 158.012,183.490 157.293 C 183.579 156.574,183.577 155.494,183.486 154.893 C 183.395 154.292,183.322 154.880,183.324 156.200 M149.888 155.300 C 149.593 156.639,149.798 168.731,150.121 169.055 C 150.275 169.208,150.400 165.973,150.400 161.867 C 150.400 154.633,150.305 153.411,149.888 155.300 M266.853 157.200 C 266.831 158.190,266.987 159.270,267.200 159.600 C 267.674 160.333,267.674 158.463,267.200 156.600 C 266.922 155.506,266.891 155.558,266.853 157.200 M66.400 158.800 C 66.400 159.460,66.549 160.000,66.731 160.000 C 66.913 160.000,66.982 159.460,66.885 158.800 C 66.788 158.140,66.640 157.600,66.555 157.600 C 66.470 157.600,66.400 158.140,66.400 158.800 M133.102 158.600 C 132.997 159.150,133.066 159.600,133.255 159.600 C 133.445 159.600,133.600 159.150,133.600 158.600 C 133.600 158.050,133.531 157.600,133.447 157.600 C 133.362 157.600,133.207 158.050,133.102 158.600 M69.896 168.600 C 70.350 169.260,71.229 170.250,71.850 170.800 C 72.599 171.464,72.459 171.196,71.432 170.000 C 69.336 167.557,68.915 167.174,69.896 168.600 M128.175 170.500 L 127.000 171.800 128.300 170.625 C 129.512 169.530,129.784 169.200,129.475 169.200 C 129.406 169.200,128.821 169.785,128.175 170.500 M150.114 172.200 C 150.117 173.300,150.195 173.703,150.287 173.095 C 150.379 172.486,150.377 171.586,150.282 171.095 C 150.187 170.603,150.111 171.100,150.114 172.200 M117.400 174.800 C 117.264 175.020,117.423 175.200,117.753 175.200 C 118.083 175.200,118.464 175.020,118.600 174.800 C 118.736 174.580,118.577 174.400,118.247 174.400 C 117.917 174.400,117.536 174.580,117.400 174.800 M200.200 174.800 L 184.600 175.014 200.076 175.107 C 210.064 175.167,215.640 175.058,215.800 174.800 C 215.936 174.580,215.992 174.442,215.924 174.493 C 215.856 174.544,208.780 174.682,200.200 174.800 M145.700 175.087 C 146.305 175.178,147.295 175.178,147.900 175.087 C 148.505 174.995,148.010 174.920,146.800 174.920 C 145.590 174.920,145.095 174.995,145.700 175.087 M269.401 179.198 C 270.060 179.967,270.645 180.672,270.700 180.765 C 270.755 180.857,270.887 180.846,270.994 180.739 C 271.101 180.633,270.516 179.928,269.695 179.173 L 268.202 177.800 269.401 179.198 M0.093 193.600 C 0.093 194.370,0.175 194.685,0.276 194.300 C 0.376 193.915,0.376 193.285,0.276 192.900 C 0.175 192.515,0.093 192.830,0.093 193.600 M399.693 193.600 C 399.693 194.370,399.775 194.685,399.876 194.300 C 399.976 193.915,399.976 193.285,399.876 192.900 C 399.775 192.515,399.693 192.830,399.693 193.600 M399.693 206.400 C 399.693 207.170,399.775 207.485,399.876 207.100 C 399.976 206.715,399.976 206.085,399.876 205.700 C 399.775 205.315,399.693 205.630,399.693 206.400 M0.093 206.800 C 0.093 207.570,0.175 207.885,0.276 207.500 C 0.376 207.115,0.376 206.485,0.276 206.100 C 0.175 205.715,0.093 206.030,0.093 206.800 M193.600 208.800 C 192.776 209.064,192.741 209.126,193.400 209.154 C 193.840 209.173,194.470 209.013,194.800 208.800 C 195.501 208.347,195.014 208.347,193.600 208.800 M198.300 208.695 C 199.455 208.776,201.345 208.776,202.500 208.695 C 203.655 208.614,202.710 208.548,200.400 208.548 C 198.090 208.548,197.145 208.614,198.300 208.695 M190.480 209.195 C 189.754 209.367,189.047 209.620,188.909 209.758 C 188.571 210.096,191.244 209.576,192.000 209.157 C 192.716 208.760,192.268 208.771,190.480 209.195 M208.400 209.200 C 208.730 209.413,209.270 209.588,209.600 209.588 C 210.133 209.588,210.133 209.545,209.600 209.200 C 209.270 208.987,208.730 208.812,208.400 208.812 C 207.867 208.812,207.867 208.855,208.400 209.200 M196.400 225.200 C 196.400 225.701,196.824 225.701,197.600 225.200 C 198.085 224.886,198.028 224.811,197.300 224.806 C 196.805 224.803,196.400 224.980,196.400 225.200 M202.400 225.200 C 203.188 225.709,204.115 225.709,203.800 225.200 C 203.664 224.980,203.158 224.803,202.676 224.806 C 201.964 224.811,201.912 224.885,202.400 225.200 M176.185 234.900 L 174.200 237.000 176.300 235.015 C 177.455 233.923,178.400 232.978,178.400 232.915 C 178.400 232.617,178.029 232.949,176.185 234.900 M172.800 238.800 C 172.330 239.460,172.036 240.000,172.146 240.000 C 172.256 240.000,172.730 239.460,173.200 238.800 C 173.670 238.140,173.964 237.600,173.854 237.600 C 173.744 237.600,173.270 238.140,172.800 238.800 M306.832 240.824 C 306.814 241.166,307.080 241.796,307.422 242.224 C 308.034 242.988,308.038 242.987,307.676 242.200 C 307.474 241.760,307.208 241.130,307.086 240.800 C 306.893 240.282,306.859 240.285,306.832 240.824 M92.065 245.017 C 91.395 246.488,91.523 246.802,92.247 245.465 C 92.586 244.840,92.788 244.254,92.696 244.163 C 92.605 244.071,92.321 244.456,92.065 245.017 M5.236 245.514 C 5.182 246.285,6.923 253.035,7.061 252.587 C 7.126 252.374,6.750 250.580,6.226 248.600 C 5.701 246.620,5.256 245.232,5.236 245.514 M168.096 247.982 C 167.871 248.869,167.833 249.503,168.013 249.392 C 168.400 249.153,168.957 246.824,168.690 246.557 C 168.588 246.455,168.321 247.096,168.096 247.982 M248.812 249.200 C 248.812 249.530,248.987 250.070,249.200 250.400 C 249.545 250.933,249.588 250.933,249.588 250.400 C 249.588 250.070,249.413 249.530,249.200 249.200 C 248.855 248.667,248.812 248.667,248.812 249.200 M393.029 251.429 C 392.881 252.015,392.838 252.572,392.932 252.666 C 393.027 252.760,393.224 252.358,393.371 251.771 C 393.519 251.185,393.562 250.628,393.468 250.534 C 393.373 250.440,393.176 250.842,393.029 251.429 M249.206 251.833 C 249.209 252.255,249.395 252.870,249.618 253.200 C 249.915 253.638,249.952 253.476,249.756 252.600 C 249.427 251.129,249.198 250.810,249.206 251.833 M391.893 255.493 C 391.542 256.755,391.322 257.855,391.404 257.937 C 391.486 258.019,391.850 257.063,392.213 255.813 C 392.577 254.563,392.797 253.464,392.703 253.370 C 392.609 253.276,392.245 254.231,391.893 255.493 M232.828 254.676 C 232.918 255.715,233.544 256.596,233.572 255.724 C 233.587 255.242,233.420 254.736,233.200 254.600 C 232.980 254.464,232.813 254.498,232.828 254.676 M166.667 255.467 C 166.305 255.828,166.338 260.884,166.706 261.462 C 166.868 261.717,167.000 260.412,167.000 258.563 C 167.000 256.714,166.985 255.201,166.967 255.201 C 166.948 255.200,166.813 255.320,166.667 255.467 M8.067 256.820 C 8.301 257.492,8.567 257.967,8.657 257.876 C 8.856 257.678,8.101 255.600,7.831 255.600 C 7.727 255.600,7.833 256.149,8.067 256.820 M150.134 258.400 C 150.134 260.050,150.205 260.725,150.291 259.900 C 150.378 259.075,150.378 257.725,150.291 256.900 C 150.205 256.075,150.134 256.750,150.134 258.400 M249.734 258.400 C 249.734 260.050,249.805 260.725,249.891 259.900 C 249.978 259.075,249.978 257.725,249.891 256.900 C 249.805 256.075,249.734 256.750,249.734 258.400 M233.108 260.383 C 232.831 261.367,232.997 261.937,233.432 261.501 C 233.560 261.373,233.601 260.848,233.524 260.334 L 233.384 259.400 233.108 260.383 M249.473 263.353 C 249.323 263.745,249.211 264.366,249.225 264.733 C 249.242 265.175,249.381 265.074,249.637 264.434 C 249.849 263.903,249.961 263.282,249.885 263.054 C 249.809 262.827,249.624 262.961,249.473 263.353 M150.028 263.876 C 150.118 264.915,150.744 265.796,150.772 264.924 C 150.787 264.442,150.620 263.936,150.400 263.800 C 150.180 263.664,150.013 263.698,150.028 263.876 M167.995 268.381 C 168.204 269.111,168.496 269.819,168.644 269.954 C 169.049 270.325,168.399 267.857,167.979 267.427 C 167.768 267.212,167.775 267.615,167.995 268.381 M83.067 278.667 C 82.653 279.080,82.753 281.123,83.200 281.400 C 83.442 281.549,83.600 281.004,83.600 280.024 C 83.600 278.366,83.534 278.199,83.067 278.667 M223.385 282.100 L 221.400 284.200 223.500 282.215 C 224.655 281.123,225.600 280.178,225.600 280.115 C 225.600 279.817,225.229 280.149,223.385 282.100 M316.400 289.400 C 316.400 293.730,316.539 295.961,316.800 295.800 C 317.039 295.653,317.200 293.070,317.200 289.400 C 317.200 285.730,317.039 283.147,316.800 283.000 C 316.539 282.839,316.400 285.070,316.400 289.400 M219.211 285.420 C 218.447 285.959,217.997 286.399,218.211 286.398 C 218.425 286.397,219.140 285.953,219.800 285.412 C 221.341 284.149,221.005 284.153,219.211 285.420 M188.446 289.756 C 188.581 289.904,189.289 290.196,190.019 290.405 C 190.785 290.625,191.188 290.632,190.973 290.421 C 190.543 290.001,188.075 289.351,188.446 289.756 M209.700 290.012 C 209.205 290.211,208.800 290.457,208.800 290.559 C 208.800 290.780,211.216 290.117,211.521 289.812 C 211.850 289.483,210.702 289.610,209.700 290.012 M164.400 293.400 C 165.595 294.610,166.663 295.600,166.773 295.600 C 166.883 295.600,165.995 294.610,164.800 293.400 C 163.605 292.190,162.537 291.200,162.427 291.200 C 162.317 291.200,163.205 292.190,164.400 293.400 M197.063 291.700 C 197.164 291.865,198.486 292.000,200.000 292.000 C 201.514 292.000,202.836 291.865,202.938 291.700 C 203.040 291.535,201.719 291.400,200.001 291.400 C 198.283 291.400,196.961 291.535,197.063 291.700 M234.786 293.900 L 232.600 296.200 234.900 294.014 C 237.037 291.982,237.383 291.600,237.086 291.600 C 237.024 291.600,235.989 292.635,234.786 293.900 M199.100 308.282 C 199.595 308.378,200.405 308.378,200.900 308.282 C 201.395 308.187,200.990 308.109,200.000 308.109 C 199.010 308.109,198.605 308.187,199.100 308.282 M311.578 320.300 L 310.200 321.800 311.700 320.422 C 313.096 319.138,313.384 318.800,313.078 318.800 C 313.012 318.800,312.337 319.475,311.578 320.300 M150.300 325.100 C 177.635 325.157,222.365 325.157,249.700 325.100 C 277.035 325.043,254.670 324.997,200.000 324.997 C 145.330 324.997,122.965 325.043,150.300 325.100 M350.575 331.300 L 349.400 332.600 350.700 331.425 C 351.415 330.779,352.000 330.194,352.000 330.125 C 352.000 329.816,351.670 330.088,350.575 331.300 M347.381 334.900 L 345.800 336.600 347.500 335.019 C 349.081 333.548,349.384 333.200,349.081 333.200 C 349.016 333.200,348.251 333.965,347.381 334.900 M52.400 335.000 C 53.146 335.770,53.847 336.400,53.957 336.400 C 54.067 336.400,53.546 335.770,52.800 335.000 C 52.054 334.230,51.353 333.600,51.243 333.600 C 51.133 333.600,51.654 334.230,52.400 335.000 M334.581 347.700 L 333.000 349.400 334.700 347.819 C 336.281 346.348,336.584 346.000,336.281 346.000 C 336.216 346.000,335.451 346.765,334.581 347.700 M67.600 349.725 C 67.600 349.794,68.185 350.379,68.900 351.025 L 70.200 352.200 69.025 350.900 C 67.930 349.688,67.600 349.416,67.600 349.725 M330.975 350.900 L 329.800 352.200 331.100 351.025 C 331.815 350.379,332.400 349.794,332.400 349.725 C 332.400 349.416,332.070 349.688,330.975 350.900 M99.600 372.979 C 99.600 373.089,100.140 373.459,100.800 373.800 C 101.460 374.141,102.000 374.331,102.000 374.221 C 102.000 374.111,101.460 373.741,100.800 373.400 C 100.140 373.059,99.600 372.869,99.600 372.979 M255.200 392.026 C 253.716 392.531,253.456 392.698,254.400 392.540 C 255.770 392.311,258.590 391.259,257.800 391.272 C 257.580 391.275,256.410 391.615,255.200 392.026 M145.000 392.400 C 145.440 392.589,146.070 392.744,146.400 392.744 C 146.778 392.744,146.704 392.617,146.200 392.400 C 145.760 392.211,145.130 392.056,144.800 392.056 C 144.422 392.056,144.496 392.183,145.000 392.400 M147.800 393.146 C 148.240 393.339,149.230 393.610,150.000 393.750 C 150.961 393.924,151.149 393.894,150.600 393.654 C 150.160 393.461,149.170 393.190,148.400 393.050 C 147.439 392.876,147.251 392.906,147.800 393.146 M251.000 393.200 C 250.496 393.417,250.422 393.544,250.800 393.544 C 251.130 393.544,251.760 393.389,252.200 393.200 C 252.704 392.983,252.778 392.856,252.400 392.856 C 252.070 392.856,251.440 393.011,251.000 393.200 M192.900 399.876 C 193.285 399.976,193.915 399.976,194.300 399.876 C 194.685 399.775,194.370 399.693,193.600 399.693 C 192.830 399.693,192.515 399.775,192.900 399.876 M205.700 399.876 C 206.085 399.976,206.715 399.976,207.100 399.876 C 207.485 399.775,207.170 399.693,206.400 399.693 C 205.630 399.693,205.315 399.775,205.700 399.876 " stroke="none" fill="#565656" fill-rule="evenodd"></path><path id="path3" d="M131.672 11.659 C 130.501 12.109,129.612 12.545,129.695 12.629 C 129.879 12.813,133.447 11.487,133.848 11.085 C 134.243 10.690,134.088 10.731,131.672 11.659 M266.215 11.141 C 266.704 11.585,269.278 12.455,269.487 12.247 C 269.573 12.161,268.786 11.798,267.737 11.440 C 266.689 11.083,266.004 10.948,266.215 11.141 M341.200 58.546 C 345.877 63.276,347.443 64.655,344.451 61.409 C 343.543 60.424,342.800 59.447,342.800 59.238 C 342.800 59.029,341.405 57.741,339.700 56.376 L 336.600 53.894 341.200 58.546 M61.000 55.789 C 58.472 57.951,57.103 59.342,55.639 61.237 C 54.891 62.207,56.196 61.113,58.539 58.807 C 60.883 56.501,62.800 54.566,62.800 54.507 C 62.800 54.285,62.558 54.458,61.000 55.789 M273.000 85.600 C 273.440 85.789,274.070 85.944,274.400 85.944 C 274.778 85.944,274.704 85.817,274.200 85.600 C 273.760 85.411,273.130 85.256,272.800 85.256 C 272.422 85.256,272.496 85.383,273.000 85.600 M76.585 117.700 L 74.600 119.800 76.700 117.815 C 77.855 116.723,78.800 115.778,78.800 115.715 C 78.800 115.417,78.429 115.749,76.585 117.700 M331.267 130.420 C 331.501 131.092,331.767 131.567,331.857 131.476 C 332.056 131.278,331.301 129.200,331.031 129.200 C 330.927 129.200,331.033 129.749,331.267 130.420 M12.400 129.684 C 12.400 129.804,12.128 130.554,11.795 131.351 C 11.462 132.148,11.279 132.800,11.389 132.800 C 11.706 132.800,12.833 129.900,12.605 129.672 C 12.492 129.559,12.400 129.565,12.400 129.684 M387.818 131.300 C 387.968 131.795,388.255 132.376,388.456 132.591 C 388.657 132.806,388.619 132.401,388.372 131.691 C 387.865 130.238,387.397 129.908,387.818 131.300 M66.524 141.400 C 66.526 142.720,66.601 143.212,66.690 142.493 C 66.779 141.774,66.777 140.694,66.686 140.093 C 66.595 139.492,66.522 140.080,66.524 141.400 M332.909 141.600 C 332.909 142.590,332.987 142.995,333.082 142.500 C 333.178 142.005,333.178 141.195,333.082 140.700 C 332.987 140.205,332.909 140.610,332.909 141.600 M332.954 153.600 C 332.954 156.350,333.018 157.475,333.096 156.100 C 333.174 154.725,333.174 152.475,333.096 151.100 C 333.018 149.725,332.954 150.850,332.954 153.600 M133.301 155.400 C 133.305 156.280,133.387 156.593,133.483 156.095 C 133.579 155.598,133.575 154.878,133.475 154.495 C 133.375 154.113,133.296 154.520,133.301 155.400 M249.680 165.276 C 249.636 170.048,249.735 174.037,249.900 174.139 C 250.065 174.242,250.154 171.687,250.097 168.463 C 249.906 157.642,249.762 156.537,249.680 165.276 M67.429 163.200 C 67.576 163.750,67.864 164.470,68.067 164.800 C 68.325 165.217,68.357 165.095,68.171 164.400 C 68.024 163.850,67.736 163.130,67.533 162.800 C 67.275 162.383,67.243 162.505,67.429 163.200 M131.000 166.000 C 130.659 166.660,130.469 167.200,130.579 167.200 C 130.689 167.200,131.059 166.660,131.400 166.000 C 131.741 165.340,131.931 164.800,131.821 164.800 C 131.711 164.800,131.341 165.340,131.000 166.000 M82.538 174.894 C 82.792 175.056,90.560 175.188,99.800 175.188 C 109.040 175.188,116.808 175.056,117.062 174.894 C 117.316 174.732,109.548 174.600,99.800 174.600 C 90.052 174.600,82.284 174.732,82.538 174.894 M282.262 174.900 C 282.364 175.065,290.436 175.200,300.200 175.200 C 309.964 175.200,318.036 175.065,318.138 174.900 C 318.240 174.735,310.168 174.600,300.200 174.600 C 290.232 174.600,282.160 174.735,282.262 174.900 M254.700 175.089 C 255.415 175.178,256.585 175.178,257.300 175.089 C 258.015 175.001,257.430 174.928,256.000 174.928 C 254.570 174.928,253.985 175.001,254.700 175.089 M199.100 208.289 C 199.815 208.378,200.985 208.378,201.700 208.289 C 202.415 208.201,201.830 208.128,200.400 208.128 C 198.970 208.128,198.385 208.201,199.100 208.289 M164.386 223.100 L 162.200 225.400 164.500 223.214 C 166.637 221.182,166.983 220.800,166.686 220.800 C 166.624 220.800,165.589 221.835,164.386 223.100 M234.800 222.525 C 234.800 222.594,235.385 223.179,236.100 223.825 L 237.400 225.000 236.225 223.700 C 235.130 222.488,234.800 222.216,234.800 222.525 M198.207 225.166 C 197.711 225.360,198.345 225.463,199.904 225.442 C 201.273 225.423,202.079 225.284,201.696 225.132 C 200.774 224.767,199.190 224.782,198.207 225.166 M209.600 226.534 C 209.600 226.637,210.181 226.924,210.891 227.172 C 211.601 227.419,212.006 227.457,211.791 227.256 C 211.335 226.829,209.600 226.258,209.600 226.534 M212.833 227.751 C 213.242 228.121,216.400 229.595,216.400 229.416 C 216.400 229.189,213.381 227.600,212.949 227.600 C 212.794 227.600,212.742 227.668,212.833 227.751 M244.000 234.549 C 244.000 234.981,245.589 238.000,245.816 238.000 C 245.926 238.000,245.630 237.235,245.159 236.300 C 244.232 234.461,244.000 234.111,244.000 234.549 M231.440 248.137 C 231.798 249.186,232.161 249.973,232.247 249.887 C 232.455 249.678,231.585 247.104,231.141 246.615 C 230.948 246.404,231.083 247.089,231.440 248.137 M311.018 251.700 C 311.168 252.195,311.455 252.776,311.656 252.991 C 311.857 253.206,311.819 252.801,311.572 252.091 C 311.065 250.638,310.597 250.308,311.018 251.700 M149.724 258.600 C 149.726 259.920,149.801 260.412,149.890 259.693 C 149.979 258.974,149.977 257.894,149.886 257.293 C 149.795 256.692,149.722 257.280,149.724 258.600 M166.920 258.400 C 166.920 259.610,166.995 260.105,167.087 259.500 C 167.178 258.895,167.178 257.905,167.087 257.300 C 166.995 256.695,166.920 257.190,166.920 258.400 M11.370 267.514 C 11.701 268.453,12.172 269.531,12.416 269.910 C 12.809 270.520,12.829 270.508,12.589 269.800 C 11.677 267.108,11.455 266.560,11.129 266.204 C 10.930 265.986,11.039 266.576,11.370 267.514 M387.979 268.255 C 387.758 268.836,387.652 269.385,387.743 269.476 C 387.833 269.567,388.099 269.092,388.333 268.420 C 388.853 266.928,388.539 266.782,387.979 268.255 M231.244 268.844 C 230.998 269.551,230.866 270.200,230.952 270.285 C 231.038 270.371,231.309 269.862,231.556 269.156 C 231.802 268.449,231.934 267.800,231.848 267.715 C 231.762 267.629,231.491 268.138,231.244 268.844 M198.905 291.487 C 199.514 291.579,200.414 291.577,200.905 291.482 C 201.397 291.387,200.900 291.311,199.800 291.314 C 198.700 291.317,198.297 291.395,198.905 291.487 M164.400 293.800 C 165.146 294.570,165.847 295.200,165.957 295.200 C 166.067 295.200,165.546 294.570,164.800 293.800 C 164.054 293.030,163.353 292.400,163.243 292.400 C 163.133 292.400,163.654 293.030,164.400 293.800 M83.200 308.110 C 83.200 308.683,83.387 309.268,83.616 309.410 C 83.889 309.579,83.938 309.277,83.760 308.534 C 83.392 307.001,83.200 306.856,83.200 308.110 M316.279 308.557 C 316.115 308.974,316.075 309.409,316.191 309.524 C 316.555 309.889,316.876 309.291,316.724 308.531 C 316.583 307.835,316.562 307.836,316.279 308.557 M85.078 315.795 C 85.444 316.562,85.798 317.135,85.865 317.069 C 86.084 316.849,85.032 314.400,84.719 314.400 C 84.551 314.400,84.712 315.028,85.078 315.795 M314.663 315.283 C 314.338 316.525,314.585 316.589,315.126 315.402 C 315.377 314.851,315.428 314.400,315.238 314.400 C 315.048 314.400,314.789 314.797,314.663 315.283 M341.201 341.509 C 338.671 344.089,337.240 345.615,338.020 344.900 C 338.800 344.185,339.588 343.600,339.772 343.600 C 339.955 343.600,340.892 342.814,341.853 341.853 C 342.814 340.892,343.600 339.955,343.600 339.772 C 343.600 339.588,344.175 338.845,344.878 338.119 C 345.582 337.394,346.077 336.804,345.978 336.809 C 345.880 336.813,343.730 338.928,341.201 341.509 M55.620 338.679 C 56.379 339.602,57.419 340.907,57.930 341.579 C 58.442 342.250,59.065 342.800,59.315 342.800 C 59.565 342.800,60.542 343.557,61.485 344.483 C 62.428 345.409,63.200 346.084,63.199 345.983 C 63.199 345.882,61.183 343.820,58.720 341.400 C 56.256 338.980,54.861 337.755,55.620 338.679 M130.400 387.734 C 130.400 387.837,130.981 388.124,131.691 388.372 C 132.401 388.619,132.806 388.657,132.591 388.456 C 132.135 388.029,130.400 387.458,130.400 387.734 M268.100 388.012 C 266.761 388.551,267.011 388.824,268.400 388.340 C 269.060 388.110,269.600 387.849,269.600 387.761 C 269.600 387.524,269.113 387.605,268.100 388.012 " stroke="none" fill="#7c7c7c" fill-rule="evenodd"></path><path id="path4" d="M332.934 146.000 C 332.934 147.650,333.005 148.325,333.091 147.500 C 333.178 146.675,333.178 145.325,333.091 144.500 C 333.005 143.675,332.934 144.350,332.934 146.000 M66.565 150.600 C 66.566 154.560,66.626 156.126,66.698 154.080 C 66.771 152.034,66.771 148.794,66.698 146.880 C 66.624 144.966,66.565 146.640,66.565 150.600 " stroke="none" fill="#747474" fill-rule="evenodd"></path></g></svg>