<?xml version="1.0" standalone="no"?>
<!DOCTYPE svg PUBLIC "-//W3C//DTD SVG 20010904//EN"
 "http://www.w3.org/TR/2001/REC-SVG-20010904/DTD/svg10.dtd">
<svg version="1.0" xmlns="http://www.w3.org/2000/svg"
 width="33px" height="33px" viewBox="0 0 384.000000 384.000000"
 preserveAspectRatio="xMidYMid meet">

<g transform="translate(0.000000,384.000000) scale(0.100000,-0.100000)"
fill="#FF0000" stroke="none">
<path d="M900 3302 c0 -4 52 -162 115 -352 l115 -345 0 -252 0 -253 105 0 105
0 0 248 0 247 119 358 119 357 -112 0 -113 0 -51 -207 c-29 -115 -52 -216 -52
-225 0 -10 -4 -18 -10 -18 -5 0 -10 8 -10 17 0 9 -23 110 -52 225 l-52 208
-113 0 c-62 0 -113 -3 -113 -8z"/>
<path d="M1740 2990 c-34 -11 -67 -32 -87 -53 -55 -61 -63 -110 -63 -386 0
-135 5 -266 11 -291 26 -117 111 -174 259 -174 105 -1 165 20 214 74 19 21 39
56 45 77 7 23 11 151 11 318 0 274 -1 281 -24 331 -13 28 -38 61 -56 74 -72
52 -209 65 -310 30z m172 -147 c17 -15 18 -37 18 -295 0 -265 -1 -279 -20
-298 -29 -29 -74 -26 -99 6 -20 26 -21 39 -21 293 0 302 2 311 67 311 20 0 45
-7 55 -17z"/>
<path d="M2342 2593 c3 -368 5 -411 21 -440 29 -54 106 -82 175 -63 22 5 63
26 90 45 52 36 62 33 62 -16 0 -17 8 -19 95 -19 l95 0 0 450 0 450 -100 0
-100 0 0 -369 0 -369 -34 -16 c-43 -20 -70 -20 -90 0 -14 13 -16 62 -16 385
l0 369 -101 0 -100 0 3 -407z"/>
<path d="M786 1914 c-189 -46 -346 -205 -391 -396 -18 -77 -21 -590 -4 -684
26 -147 144 -305 274 -368 133 -65 50 -60 1190 -64 689 -2 1067 1 1119 8 223
29 405 197 451 415 21 99 21 581 0 680 -43 203 -205 369 -402 410 -100 21
-2149 20 -2237 -1z m444 -259 l0 -75 -95 0 -95 0 0 -480 0 -481 -97 3 -98 3
-3 478 -2 477 -90 0 -90 0 0 75 0 75 285 0 285 0 0 -75z m890 -105 l0 -180 45
35 c63 48 113 62 166 46 54 -16 87 -53 94 -104 4 -23 5 -177 3 -342 -3 -341
-5 -350 -78 -379 -22 -9 -48 -16 -58 -16 -39 0 -91 22 -130 56 l-42 36 0 -41
0 -41 -90 0 -90 0 0 555 0 555 90 0 90 0 0 -180z m867 -115 c50 -21 82 -51
104 -100 15 -33 19 -65 19 -182 l0 -143 -155 0 -155 0 0 -111 c0 -61 5 -119
10 -130 13 -23 81 -27 99 -5 6 7 14 43 18 80 l6 66 88 0 89 0 0 -57 c0 -83
-17 -132 -59 -174 -90 -90 -285 -91 -374 -3 -58 59 -62 80 -62 364 0 240 1
258 22 302 25 54 78 94 144 108 58 12 158 5 206 -15z m-1547 -323 c0 -250 3
-341 12 -350 15 -15 50 -15 82 0 l26 11 2 336 3 336 93 3 92 3 -2 -413 -3
-413 -79 -3 c-85 -3 -96 2 -96 47 0 23 -1 23 -22 7 -42 -30 -123 -66 -151 -66
-45 0 -95 26 -117 62 -19 32 -20 50 -20 406 l0 372 90 0 90 0 0 -338z"/>
<path d="M2148 1304 l-28 -15 0 -254 c0 -251 0 -254 22 -269 12 -9 37 -16 55
-16 27 0 35 5 43 26 6 14 10 130 10 259 0 129 -4 245 -10 259 -11 30 -48 34
-92 10z"/>
<path d="M2816 1304 c-12 -11 -16 -36 -16 -95 l0 -79 66 0 66 0 -4 81 c-3 66
-7 83 -23 95 -25 19 -70 18 -89 -2z"/>
</g>
</svg>
