<svg xmlns="http://www.w3.org/2000/svg" version="1.0" width="40px" height="40px" viewBox="0 0 275.000000 183.000000" preserveAspectRatio="xMidYMid meet">

<g transform="translate(0.000000,183.000000) scale(0.100000,-0.100000)" fill="#E7585B" stroke="none">
<path d="M1020 1504 c-133 -36 -210 -118 -239 -252 -6 -29 -11 -109 -11 -177 l0 -125 45 -41 c25 -23 46 -51 47 -63 1 -11 4 69 8 180 6 196 6 202 35 260 32 64 70 96 139 116 58 18 605 18 662 1 69 -21 107 -53 139 -118 l30 -60 0 -310 0 -310 -30 -60 c-32 -63 -70 -97 -134 -116 -20 -6 -121 -13 -226 -16 -104 -3 -183 -8 -175 -11 24 -7 90 -74 83 -85 -3 -6 55 -8 158 -5 136 4 173 8 219 26 104 41 170 118 196 231 19 79 19 613 0 692 -26 113 -91 189 -196 232 -52 21 -71 22 -375 24 -259 2 -330 -1 -375 -13z"/>
<path d="M1652 1287 c-28 -30 -28 -68 1 -95 46 -44 117 -14 117 48 0 63 -75 93 -118 47z"/>
<path d="M1313 1220 c-239 -49 -330 -343 -160 -518 51 -53 96 -77 167 -90 193 -35 363 107 363 303 0 196 -179 344 -370 305z m143 -119 c134 -61 164 -233 58 -333 -131 -123 -344 -31 -344 149 0 144 155 244 286 184z"/>
</g>
</svg>